<svg xmlns="http://www.w3.org/2000/svg" xmlns:xlink="http://www.w3.org/1999/xlink" version="1.1" width="1000" height="1000" viewBox="0 0 1000 1000" xml:space="preserve">
<desc>Created with Fabric.js 3.5.0</desc>
<defs>
</defs>
<rect x="0" y="0" width="100%" height="100%" fill="rgba(255,255,255,0)"/>
<g transform="matrix(0.8095 0.5916 -0.5916 0.8095 488.0686 500.0046)" id="828310">
<g style="" vector-effect="non-scaling-stroke">
		<g transform="matrix(1.5881 0 0 1.5881 133.3355 0.0104)" id="Layer_1">
<path style="stroke: none; stroke-width: 1; stroke-dasharray: none; stroke-linecap: butt; stroke-dashoffset: 0; stroke-linejoin: miter; stroke-miterlimit: 4; is-custom-font: none; font-file-url: none; fill: rgb(255,168,0); fill-rule: nonzero; opacity: 1;" transform=" translate(-335.836, -250.88)" d="M 411.399 7.399 H 260.273 c -9.277 0 -16.792 7.514 -16.792 16.792 v 453.378 c 0 9.277 7.514 16.792 16.792 16.792 h 151.126 c 9.277 0 16.792 -7.514 16.792 -16.792 V 24.191 C 428.191 14.914 420.676 7.399 411.399 7.399" stroke-linecap="round"/>
</g>
		<g transform="matrix(1.5881 0 0 1.5881 -133.3312 0.0104)" id="Layer_1">
<path style="stroke: none; stroke-width: 1; stroke-dasharray: none; stroke-linecap: butt; stroke-dashoffset: 0; stroke-linejoin: miter; stroke-miterlimit: 4; is-custom-font: none; font-file-url: none; fill: rgb(255,255,255); fill-rule: nonzero; opacity: 1;" transform=" translate(-167.918, -250.88)" d="M 243.481 7.399 H 92.355 c -9.277 0 -16.792 7.514 -16.792 16.792 v 453.378 c 0 9.277 7.514 16.792 16.792 16.792 h 151.126 c 9.277 0 16.792 -7.514 16.792 -16.792 V 24.191 C 260.273 14.914 252.758 7.399 243.481 7.399" stroke-linecap="round"/>
</g>
		<g transform="matrix(1.5881 0 0 1.5881 0.0043 0.0104)" id="Layer_1">
<path style="stroke: none; stroke-width: 1; stroke-dasharray: none; stroke-linecap: butt; stroke-dashoffset: 0; stroke-linejoin: miter; stroke-miterlimit: 4; is-custom-font: none; font-file-url: none; fill: rgb(255,225,0); fill-rule: nonzero; opacity: 1;" transform=" translate(-251.8775, -250.88)" d="M 386.211 7.399 H 117.543 c -9.277 0 -16.792 7.514 -16.792 16.792 v 453.378 c 0 9.277 7.514 16.792 16.792 16.792 h 268.669 c 9.277 0 16.792 -7.514 16.792 -16.792 V 24.191 C 403.003 14.914 395.489 7.399 386.211 7.399" stroke-linecap="round"/>
</g>
		<g transform="matrix(1.5881 0 0 1.5881 0.1127 -0.1038)" id="Layer_1">
<path style="stroke: none; stroke-width: 1; stroke-dasharray: none; stroke-linecap: butt; stroke-dashoffset: 0; stroke-linejoin: miter; stroke-miterlimit: 4; is-custom-font: none; font-file-url: none; fill: rgb(255,168,0); fill-rule: nonzero; opacity: 1;" transform=" translate(-251.9464, -250.8099)" d="M 277.064 318.047 L 277.064 318.047 c 0 11.041 2.569 21.93 7.506 31.812 l 6.247 12.485 c 1.394 2.796 -0.63 6.079 -3.753 6.079 H 216.69 c -3.123 0 -5.147 -3.283 -3.753 -6.079 l 6.247 -12.485 c 4.937 -9.882 7.506 -20.771 7.506 -31.812 c -8.295 6.011 -17.883 9.11 -28.454 9.11 c -30.695 0 -57.327 -25.775 -55.405 -56.857 c 1.075 -17.48 12.208 -32.475 27.035 -41.778 c 14.886 -9.345 28.689 -10.092 41.031 -7.095 c -7.892 -9.345 -12.661 -21.401 -12.661 -34.583 c 0 -33.13 30.032 -59.25 64.355 -52.609 c 21.485 4.148 38.554 21.804 42.164 43.382 c 2.804 16.741 -2.191 32.324 -11.889 43.81 c 12.434 -3.014 26.346 -2.233 41.35 7.296 c 14.752 9.37 25.843 24.323 26.858 41.77 c 1.797 30.998 -24.919 56.664 -55.547 56.664 C 295.098 327.157 285.208 323.933 277.064 318.047" stroke-linecap="round"/>
</g>
		<g transform="matrix(1.5881 0 0 1.5881 0.0043 -113.3288)" id="Layer_1">
<path style="stroke: none; stroke-width: 1; stroke-dasharray: none; stroke-linecap: butt; stroke-dashoffset: 0; stroke-linejoin: miter; stroke-miterlimit: 4; is-custom-font: none; font-file-url: none; fill: rgb(0,0,0); fill-rule: nonzero; opacity: 1;" transform=" translate(-251.877, -179.512)" d="M 428.191 360.024 c -4.641 0 -8.396 -3.755 -8.396 -8.396 V 24.188 c 0 -4.628 -3.763 -8.396 -8.396 -8.396 H 92.355 c -4.628 0 -8.396 3.767 -8.396 8.396 v 50.375 c 0 4.637 -3.759 8.396 -8.396 8.396 c -4.637 0 -8.396 -3.759 -8.396 -8.396 V 24.188 C 67.167 10.298 78.466 -1 92.355 -1 h 319.044 c 13.889 0 25.188 11.298 25.188 25.188 v 327.44 C 436.587 356.268 432.831 360.024 428.191 360.024 z" stroke-linecap="round"/>
</g>
		<g transform="matrix(1.5881 0 0 1.5881 0.0043 106.6738)" id="Layer_1">
<path style="stroke: none; stroke-width: 1; stroke-dasharray: none; stroke-linecap: butt; stroke-dashoffset: 0; stroke-linejoin: miter; stroke-miterlimit: 4; is-custom-font: none; font-file-url: none; fill: rgb(0,0,0); fill-rule: nonzero; opacity: 1;" transform=" translate(-251.877, -318.046)" d="M 411.399 502.754 H 92.355 c -13.889 0 -25.188 -11.298 -25.188 -25.188 V 141.734 c 0 -4.637 3.759 -8.396 8.396 -8.396 c 4.637 0 8.396 3.759 8.396 8.396 v 335.832 c 0 4.632 3.767 8.396 8.396 8.396 h 319.044 c 4.633 0 8.396 -3.763 8.396 -8.396 v -58.771 c 0 -4.641 3.755 -8.396 8.396 -8.396 s 8.396 3.755 8.396 8.396 v 58.771 C 436.587 491.455 425.288 502.754 411.399 502.754 z" stroke-linecap="round"/>
</g>
		<g transform="matrix(1.5881 0 0 1.5881 -280 -226.6613)" id="Layer_1">
<path style="stroke: none; stroke-width: 1; stroke-dasharray: none; stroke-linecap: butt; stroke-dashoffset: 0; stroke-linejoin: miter; stroke-miterlimit: 4; is-custom-font: none; font-file-url: none; fill: rgb(0,0,0); fill-rule: nonzero; opacity: 1;" transform=" translate(-75.563, -108.15)" d="M 83.959 108.15 c 0 4.635 -3.761 8.396 -8.396 8.396 c -4.635 0 -8.396 -3.761 -8.396 -8.396 s 3.761 -8.396 8.396 -8.396 C 80.198 99.754 83.959 103.515 83.959 108.15" stroke-linecap="round"/>
</g>
		<g transform="matrix(1.5881 0 0 1.5881 280.0003 213.3392)" id="Layer_1">
<path style="stroke: none; stroke-width: 1; stroke-dasharray: none; stroke-linecap: butt; stroke-dashoffset: 0; stroke-linejoin: miter; stroke-miterlimit: 4; is-custom-font: none; font-file-url: none; fill: rgb(0,0,0); fill-rule: nonzero; opacity: 1;" transform=" translate(-428.191, -385.215)" d="M 436.587 385.215 c 0 4.635 -3.761 8.396 -8.396 8.396 s -8.396 -3.761 -8.396 -8.396 s 3.761 -8.396 8.396 -8.396 S 436.587 380.58 436.587 385.215" stroke-linecap="round"/>
</g>
		<g transform="matrix(1.5881 0 0 1.5881 73.3351 -106.6541)" id="Layer_1">
<path style="stroke: none; stroke-width: 1; stroke-dasharray: none; stroke-linecap: butt; stroke-dashoffset: 0; stroke-linejoin: miter; stroke-miterlimit: 4; is-custom-font: none; font-file-url: none; fill: rgb(0,0,0); fill-rule: nonzero; opacity: 1;" transform=" translate(-298.054, -183.7155)" d="M 394.607 334.844 c -4.641 0 -8.396 -3.755 -8.396 -8.396 V 49.379 h -184.71 c -4.637 0 -8.396 -3.759 -8.396 -8.396 s 3.759 -8.396 8.396 -8.396 h 193.106 c 4.641 0 8.396 3.759 8.396 8.396 v 285.465 C 403.003 331.089 399.248 334.844 394.607 334.844 z" stroke-linecap="round"/>
</g>
		<g transform="matrix(1.5881 0 0 1.5881 -73.3301 106.6731)" id="Layer_1">
<path style="stroke: none; stroke-width: 1; stroke-dasharray: none; stroke-linecap: butt; stroke-dashoffset: 0; stroke-linejoin: miter; stroke-miterlimit: 4; is-custom-font: none; font-file-url: none; fill: rgb(0,0,0); fill-rule: nonzero; opacity: 1;" transform=" translate(-205.7, -318.046)" d="M 302.252 469.17 H 109.147 c -4.637 0 -8.396 -3.755 -8.396 -8.396 V 175.318 c 0 -4.637 3.759 -8.396 8.396 -8.396 c 4.637 0 8.396 3.759 8.396 8.396 v 277.06 h 184.71 c 4.641 0 8.396 3.755 8.396 8.396 C 310.648 465.415 306.893 469.17 302.252 469.17 z" stroke-linecap="round"/>
</g>
		<g transform="matrix(1.5881 0 0 1.5881 0.1079 -0.0906)" id="Layer_1">
<path style="stroke: none; stroke-width: 1; stroke-dasharray: none; stroke-linecap: butt; stroke-dashoffset: 0; stroke-linejoin: miter; stroke-miterlimit: 4; is-custom-font: none; font-file-url: none; fill: rgb(0,0,0); fill-rule: nonzero; opacity: 1;" transform=" translate(-251.9432, -250.8181)" d="M 287.059 376.815 H 216.69 c -4.395 0 -8.4 -2.23 -10.708 -5.961 c -2.312 -3.739 -2.521 -8.322 -0.562 -12.258 l 6.252 -12.495 c 2.14 -4.28 3.78 -8.806 4.891 -13.463 c -5.776 1.935 -11.901 2.911 -18.329 2.911 c -17.685 0 -34.859 -7.478 -47.12 -20.522 c -11.778 -12.528 -17.694 -28.599 -16.665 -45.243 c 1.181 -19.141 12.463 -36.773 30.956 -48.375 c 9.507 -5.969 19.407 -9.253 29.591 -9.835 c -3.374 -7.752 -5.157 -16.169 -5.157 -24.729 c 0 -18.587 8.232 -36.039 22.58 -47.879 c 14.348 -11.835 33.202 -16.554 51.773 -12.975 c 24.991 4.829 44.628 25.02 48.842 50.24 c 2.033 12.143 0.484 24.392 -4.28 35.346 c 10.314 0.59 20.342 3.948 29.96 10.056 c 18.423 11.708 29.632 29.336 30.738 48.363 c 0.959 16.579 -4.993 32.583 -16.767 45.054 c -12.29 13.028 -29.484 20.498 -47.161 20.498 c -6.338 0 -12.52 -1.009 -18.35 -2.968 c 1.115 4.682 2.755 9.232 4.903 13.52 l 6.248 12.487 c 1.968 3.944 1.755 8.527 -0.558 12.266 C 295.455 374.585 291.454 376.815 287.059 376.815 z M 223.483 360.024 h 56.779 l -3.206 -6.412 c -5.485 -10.987 -8.388 -23.285 -8.388 -35.568 v -16.431 l 13.315 9.626 c 6.805 4.919 14.939 7.519 23.54 7.519 c 13.078 0 25.819 -5.551 34.953 -15.226 c 8.568 -9.085 12.905 -20.645 12.217 -32.559 c -0.795 -13.57 -9.167 -26.389 -22.982 -35.162 c -11.266 -7.15 -22.662 -9.187 -34.871 -6.227 l -24.966 6.051 l 16.579 -19.629 c 8.724 -10.331 12.282 -23.474 10.019 -37.003 c -3.017 -18.054 -17.603 -33.071 -35.469 -36.523 c -13.816 -2.669 -27.278 0.685 -37.896 9.437 c -10.47 8.642 -16.476 21.371 -16.476 34.928 c 0 10.655 3.792 21.01 10.679 29.16 l 16.603 19.649 l -24.995 -6.071 c -12.106 -2.927 -23.421 -0.955 -34.588 6.051 c -13.647 8.56 -22.289 21.711 -23.122 35.182 c -0.742 11.979 3.571 23.589 12.139 32.706 c 9.101 9.683 21.818 15.234 34.887 15.234 c 8.74 0 16.657 -2.525 23.527 -7.51 l 13.324 -9.667 v 16.464 c 0 12.282 -2.902 24.573 -8.392 35.568 L 223.483 360.024 z" stroke-linecap="round"/>
</g>
		<g transform="matrix(1.5881 0 0 1.5881 -173.3297 -273.322)" id="Layer_1">
<path style="stroke: none; stroke-width: 1; stroke-dasharray: none; stroke-linecap: butt; stroke-dashoffset: 0; stroke-linejoin: miter; stroke-miterlimit: 4; is-custom-font: none; font-file-url: none; fill: rgb(0,0,0); fill-rule: nonzero; opacity: 1;" transform=" translate(-142.7319, -78.7675)" d="M 176.318 124.947 c -3.218 0 -6.285 -1.861 -7.674 -4.989 l -25.913 -58.3 l -25.913 58.3 c -1.89 4.235 -6.85 6.141 -11.081 4.259 c -4.235 -1.882 -6.145 -6.842 -4.259 -11.081 l 33.584 -75.563 c 1.345 -3.03 4.354 -4.985 7.67 -4.985 c 3.316 0 6.326 1.955 7.67 4.985 l 33.584 75.563 c 1.886 4.239 -0.025 9.199 -4.259 11.081 C 178.614 124.713 177.458 124.947 176.318 124.947 z" stroke-linecap="round"/>
</g>
		<g transform="matrix(1.5881 0 0 1.5881 -173.3332 -253.3267)" id="Layer_1">
<path style="stroke: none; stroke-width: 1; stroke-dasharray: none; stroke-linecap: butt; stroke-dashoffset: 0; stroke-linejoin: miter; stroke-miterlimit: 4; is-custom-font: none; font-file-url: none; fill: rgb(0,0,0); fill-rule: nonzero; opacity: 1;" transform=" translate(-142.73, -91.359)" d="M 159.522 99.755 h -33.584 c -4.637 0 -8.396 -3.759 -8.396 -8.396 s 3.759 -8.396 8.396 -8.396 h 33.584 c 4.637 0 8.396 3.759 8.396 8.396 C 167.918 95.996 164.159 99.755 159.522 99.755 z" stroke-linecap="round"/>
</g>
		<g transform="matrix(1.5881 0 0 1.5881 173.3345 273.3325)" id="Layer_1">
<path style="stroke: none; stroke-width: 1; stroke-dasharray: none; stroke-linecap: butt; stroke-dashoffset: 0; stroke-linejoin: miter; stroke-miterlimit: 4; is-custom-font: none; font-file-url: none; fill: rgb(0,0,0); fill-rule: nonzero; opacity: 1;" transform=" translate(-361.0238, -422.9918)" d="M 361.024 469.17 c -3.321 0 -6.322 -1.951 -7.674 -4.985 l -33.584 -75.563 c -1.878 -4.239 0.025 -9.199 4.264 -11.085 c 4.239 -1.878 9.199 0.025 11.085 4.264 l 25.909 58.304 l 25.909 -58.304 c 1.886 -4.231 6.854 -6.141 11.085 -4.264 c 4.239 1.886 6.141 6.846 4.264 11.085 l -33.584 75.563 C 367.345 467.219 364.344 469.17 361.024 469.17 z" stroke-linecap="round"/>
</g>
		<g transform="matrix(1.5881 0 0 1.5881 173.3328 253.3333)" id="Layer_1">
<path style="stroke: none; stroke-width: 1; stroke-dasharray: none; stroke-linecap: butt; stroke-dashoffset: 0; stroke-linejoin: miter; stroke-miterlimit: 4; is-custom-font: none; font-file-url: none; fill: rgb(0,0,0); fill-rule: nonzero; opacity: 1;" transform=" translate(-361.023, -410.399)" d="M 377.815 418.795 h -33.584 c -4.641 0 -8.396 -3.755 -8.396 -8.396 s 3.755 -8.396 8.396 -8.396 h 33.584 c 4.641 0 8.396 3.755 8.396 8.396 S 382.456 418.795 377.815 418.795 z" stroke-linecap="round"/>
</g>
</g>
</g>
</svg>