<svg xmlns="http://www.w3.org/2000/svg" xmlns:xlink="http://www.w3.org/1999/xlink" version="1.1" width="1000" height="1000" viewBox="0 0 1000 1000" xml:space="preserve">
<desc>Created with Fabric.js 3.5.0</desc>
<defs>
</defs>
<rect x="0" y="0" width="100%" height="100%" fill="rgba(255,255,255,0)"/>
<g transform="matrix(0.7709 0.5443 -0.5443 0.7709 511.693 499.9974)" id="414595">
<g style="" vector-effect="non-scaling-stroke">
		<g transform="matrix(12.5 0 0 12.5 0 20.625)">
<path style="stroke: none; stroke-width: 1; stroke-dasharray: none; stroke-linecap: butt; stroke-dashoffset: 0; stroke-linejoin: miter; stroke-miterlimit: 4; is-custom-font: none; font-file-url: none; fill: rgb(66,139,193); fill-rule: nonzero; opacity: 1;" transform=" translate(-32, -33.65)" d="M 52.9 42.9 C 51.4 32.4 42.6 24.4 32 24.4 c -10.6 0 -19.4 8 -20.9 18.4 h 41.8 z" stroke-linecap="round"/>
</g>
		<g transform="matrix(12.5 0 0 12.5 0.009 62.8798)">
<path style="stroke: none; stroke-width: 1; stroke-dasharray: none; stroke-linecap: butt; stroke-dashoffset: 0; stroke-linejoin: miter; stroke-miterlimit: 4; is-custom-font: none; font-file-url: none; fill: rgb(242,178,0); fill-rule: nonzero; opacity: 1;" transform=" translate(-32.0007, -37.0304)" d="M 61.8 22.9 c -0.4 -1.8 -1.5 -3.2 -3.1 -4.1 c -0.7 -0.4 -1.5 -0.6 -2.3 -0.7 c -0.7 -0.1 -1.4 0 -2.1 0.2 c -1.2 0.3 -2.4 0.9 -3.5 1.4 c -1.5 0.7 -2.9 1.4 -4.2 1.4 v 4.6 c 2.3 0 4.4 -1 6.2 -1.9 c 1.9 -0.9 3.1 -1.5 3.8 -1.1 c 0.5 0.3 0.8 0.7 0.9 1.2 c 0.1 0.6 0.1 1.4 -0.1 2.3 c -0.2 1 -0.7 2.1 -1.3 3.4 c -1.2 2.5 -2.8 4.9 -4 6.7 c -0.4 0.7 -0.8 1.3 -1.1 1.7 l -0.3 0.6 c 0 0.1 -0.1 0.1 -0.1 0.2 h -37 c 0 -0.1 -0.1 -0.1 -0.1 -0.2 l -0.3 -0.6 c -0.3 -0.5 -0.7 -1.1 -1.1 -1.7 c -1.2 -1.8 -2.8 -4.2 -4 -6.7 c -0.6 -1.3 -1 -2.4 -1.3 -3.4 c -0.2 -1 -0.3 -1.8 -0.1 -2.3 c 0.1 -0.5 0.4 -0.9 0.9 -1.2 c 0.7 -0.4 1.9 0.1 3.8 1.1 c 1.8 0.9 3.8 1.9 6.2 1.9 v -4.6 c -1.3 0 -2.7 -0.7 -4.2 -1.4 c -1.1 -0.6 -2.3 -1.1 -3.5 -1.4 c -0.9 -0.2 -1.6 -0.3 -2.3 -0.2 c -0.8 0.1 -1.6 0.3 -2.3 0.7 c -1.6 0.9 -2.7 2.4 -3.1 4.1 c -0.5 2.3 0 5.2 1.8 8.8 c 1.3 2.7 3 5.3 4.3 7.2 c 0.4 0.6 0.8 1.2 1 1.6 c 0.1 0.2 0.2 0.4 0.4 0.6 c 0.6 0.9 1 1.6 1.2 2.4 v 11.3 c -0.3 0 -0.5 0.2 -0.5 0.6 c 0 0.3 0.2 0.6 0.5 0.6 h 42.3 c 0.3 0 0.5 -0.2 0.5 -0.6 c 0 -0.3 -0.2 -0.6 -0.5 -0.6 V 43.6 c 0.3 -0.8 0.7 -1.5 1.2 -2.4 c 0.1 -0.2 0.2 -0.4 0.4 -0.6 c 0.2 -0.4 0.6 -1 1 -1.6 c 1.2 -1.9 2.9 -4.5 4.3 -7.2 c 1.7 -3.6 2.2 -6.5 1.7 -8.9" stroke-linecap="round"/>
</g>
		<g transform="matrix(12.5 0 0 12.5 -71.25 -30.9868)">
<path style="stroke: none; stroke-width: 1; stroke-dasharray: none; stroke-linecap: butt; stroke-dashoffset: 0; stroke-linejoin: miter; stroke-miterlimit: 4; is-custom-font: none; font-file-url: none; fill: rgb(66,173,226); fill-rule: nonzero; opacity: 1;" transform=" translate(-26.3, -29.5211)" d="M 32.9 27.2 c 0.5 1.6 -2 4 -5.6 5.2 c -3.6 1.3 -7 1 -7.6 -0.6 c -0.5 -1.6 2 -4 5.6 -5.2 s 7 -1 7.6 0.6" stroke-linecap="round"/>
</g>
		<g transform="matrix(12.5 0 0 12.5 0 225)">
<path style="stroke: none; stroke-width: 1; stroke-dasharray: none; stroke-linecap: butt; stroke-dashoffset: 0; stroke-linejoin: miter; stroke-miterlimit: 4; is-custom-font: none; font-file-url: none; fill: rgb(255,221,125); fill-rule: nonzero; opacity: 1;" transform=" translate(-32, -50)" d="M 29.6 44.6 h 4.8 v 10.8 h -4.8 z" stroke-linecap="round"/>
</g>
		<g transform="matrix(12.5 0 0 12.5 102.5 225)">
<path style="stroke: none; stroke-width: 1; stroke-dasharray: none; stroke-linecap: butt; stroke-dashoffset: 0; stroke-linejoin: miter; stroke-miterlimit: 4; is-custom-font: none; font-file-url: none; fill: rgb(255,206,49); fill-rule: nonzero; opacity: 1;" transform=" translate(-40.2, -50)" d="M 37.8 44.6 h 4.8 v 10.8 h -4.8 z" stroke-linecap="round"/>
</g>
		<g transform="matrix(12.5 0 0 12.5 51.25 225)">
<path style="stroke: none; stroke-width: 1; stroke-dasharray: none; stroke-linecap: butt; stroke-dashoffset: 0; stroke-linejoin: miter; stroke-miterlimit: 4; is-custom-font: none; font-file-url: none; fill: rgb(255,255,255); fill-rule: nonzero; opacity: 1;" transform=" translate(-36.1, -50)" d="M 34.4 44.6 h 3.4 v 10.8 h -3.4 z" stroke-linecap="round"/>
</g>
		<g transform="matrix(12.5 0 0 12.5 196.25 225)">
<path style="stroke: none; stroke-width: 1; stroke-dasharray: none; stroke-linecap: butt; stroke-dashoffset: 0; stroke-linejoin: miter; stroke-miterlimit: 4; is-custom-font: none; font-file-url: none; fill: rgb(255,206,49); fill-rule: nonzero; opacity: 1;" transform=" translate(-47.7, -50)" d="M 46 44.6 h 3.4 v 10.8 H 46 z" stroke-linecap="round"/>
</g>
		<g transform="matrix(12.5 0 0 12.5 -243.75 225)">
<path style="stroke: none; stroke-width: 1; stroke-dasharray: none; stroke-linecap: butt; stroke-dashoffset: 0; stroke-linejoin: miter; stroke-miterlimit: 4; is-custom-font: none; font-file-url: none; fill: rgb(242,178,0); fill-rule: nonzero; opacity: 1;" transform=" translate(-12.5, -50)" d="M 10.8 44.6 h 3.4 v 10.8 h -3.4 z" stroke-linecap="round"/>
</g>
		<g transform="matrix(12.5 0 0 12.5 -176.25 225)">
<path style="stroke: none; stroke-width: 1; stroke-dasharray: none; stroke-linecap: butt; stroke-dashoffset: 0; stroke-linejoin: miter; stroke-miterlimit: 4; is-custom-font: none; font-file-url: none; fill: rgb(255,206,49); fill-rule: nonzero; opacity: 1;" transform=" translate(-17.9, -50)" d="M 14.6 44.6 h 6.6 v 10.8 h -6.6 z" stroke-linecap="round"/>
</g>
		<g transform="matrix(12.5 0 0 12.5 -78.75 52.5)">
<path style="stroke: none; stroke-width: 1; stroke-dasharray: none; stroke-linecap: butt; stroke-dashoffset: 0; stroke-linejoin: miter; stroke-miterlimit: 4; is-custom-font: none; font-file-url: none; fill: rgb(242,178,0); fill-rule: nonzero; opacity: 1;" transform=" translate(-25.7, -36.2)" d="M 28.4 34.9 c 0 1.5 -2.7 5.3 -2.7 5.3 S 23 36.4 23 34.9 s 1.2 -2.7 2.7 -2.7 s 2.7 1.2 2.7 2.7" stroke-linecap="round"/>
</g>
		<g transform="matrix(12.5 0 0 12.5 77.5 52.5)">
<path style="stroke: none; stroke-width: 1; stroke-dasharray: none; stroke-linecap: butt; stroke-dashoffset: 0; stroke-linejoin: miter; stroke-miterlimit: 4; is-custom-font: none; font-file-url: none; fill: rgb(242,178,0); fill-rule: nonzero; opacity: 1;" transform=" translate(-38.2, -36.2)" d="M 40.9 34.9 c 0 1.5 -2.7 5.3 -2.7 5.3 s -2.7 -3.8 -2.7 -5.3 s 1.2 -2.7 2.7 -2.7 c 1.5 0 2.7 1.2 2.7 2.7" stroke-linecap="round"/>
</g>
		<g transform="matrix(12.5 0 0 12.5 0 -271.875)">
<path style="stroke: none; stroke-width: 1; stroke-dasharray: none; stroke-linecap: butt; stroke-dashoffset: 0; stroke-linejoin: miter; stroke-miterlimit: 4; is-custom-font: none; font-file-url: none; fill: rgb(102,202,242); fill-rule: nonzero; opacity: 1;" transform=" translate(-32, -10.25)" d="M 38.3 12.6 H 25.7 l 3 -4.7 h 6.4 z" stroke-linecap="round"/>
</g>
		<g transform="matrix(12.5 0 0 12.5 -183.75 -6.25)">
<path style="stroke: none; stroke-width: 1; stroke-dasharray: none; stroke-linecap: butt; stroke-dashoffset: 0; stroke-linejoin: miter; stroke-miterlimit: 4; is-custom-font: none; font-file-url: none; fill: rgb(255,206,49); fill-rule: nonzero; opacity: 1;" transform=" translate(-17.3, -31.5)" d="M 12.1 32.8 c 2.4 -2.3 7.2 -3.5 10.4 -2.6 c -2.5 2.3 -7.2 3.5 -10.4 2.6" stroke-linecap="round"/>
</g>
		<g transform="matrix(12.5 0 0 12.5 186.25 -6.25)">
<path style="stroke: none; stroke-width: 1; stroke-dasharray: none; stroke-linecap: butt; stroke-dashoffset: 0; stroke-linejoin: miter; stroke-miterlimit: 4; is-custom-font: none; font-file-url: none; fill: rgb(255,206,49); fill-rule: nonzero; opacity: 1;" transform=" translate(-46.9, -31.5)" d="M 52.1 32.8 c -3.2 0.9 -8 -0.3 -10.4 -2.6 c 3.2 -0.9 8 0.3 10.4 2.6" stroke-linecap="round"/>
</g>
		<g transform="matrix(12.5 0 0 12.5 -0.625 -23.75)">
<path style="stroke: none; stroke-width: 1; stroke-dasharray: none; stroke-linecap: butt; stroke-dashoffset: 0; stroke-linejoin: miter; stroke-miterlimit: 4; is-custom-font: none; font-file-url: none; fill: rgb(255,206,49); fill-rule: nonzero; opacity: 1;" transform=" translate(-31.95, -30.1)" d="M 26.6 30.1 c 2.9 -1.7 7.8 -1.7 10.7 0 c -2.9 1.7 -7.7 1.7 -10.7 0" stroke-linecap="round"/>
</g>
		<g transform="matrix(12.5 0 0 12.5 45.625 -271.875)">
<path style="stroke: none; stroke-width: 1; stroke-dasharray: none; stroke-linecap: butt; stroke-dashoffset: 0; stroke-linejoin: miter; stroke-miterlimit: 4; is-custom-font: none; font-file-url: none; fill: rgb(66,139,193); fill-rule: nonzero; opacity: 1;" transform=" translate(-35.65, -10.25)" d="M 33 7.9 l 1.1 4.7 h 4.2 l -3.2 -4.7 z" stroke-linecap="round"/>
</g>
		<g transform="matrix(12.5 0 0 12.5 0 -271.875)">
<path style="stroke: none; stroke-width: 1; stroke-dasharray: none; stroke-linecap: butt; stroke-dashoffset: 0; stroke-linejoin: miter; stroke-miterlimit: 4; is-custom-font: none; font-file-url: none; fill: rgb(66,173,226); fill-rule: nonzero; opacity: 1;" transform=" translate(-32, -10.25)" d="M 33 7.9 h -2.2 l -0.9 4.7 h 4.2 z" stroke-linecap="round"/>
</g>
		<g transform="matrix(12.5 0 0 12.5 -46.875 -271.875)">
<path style="stroke: none; stroke-width: 1; stroke-dasharray: none; stroke-linecap: butt; stroke-dashoffset: 0; stroke-linejoin: miter; stroke-miterlimit: 4; is-custom-font: none; font-file-url: none; fill: rgb(102,202,242); fill-rule: nonzero; opacity: 1;" transform=" translate(-28.25, -10.25)" d="M 30.8 7.9 l -0.9 4.7 h -4.2 l 3 -4.7 z" stroke-linecap="round"/>
</g>
		<g transform="matrix(12.5 0 0 12.5 0 121.25)">
<path style="stroke: none; stroke-width: 1; stroke-dasharray: none; stroke-linecap: butt; stroke-dashoffset: 0; stroke-linejoin: miter; stroke-miterlimit: 4; is-custom-font: none; font-file-url: none; fill: rgb(255,221,125); fill-rule: nonzero; opacity: 1;" transform=" translate(-32, -41.7)" d="M 11.5 41.7 c 6.8 -0.5 13.7 -0.6 20.5 -0.6 c 6.8 0 13.7 0.1 20.5 0.6 c -6.8 0.5 -13.7 0.6 -20.5 0.6 c -6.8 -0.1 -13.7 -0.1 -20.5 -0.6" stroke-linecap="round"/>
</g>
		<g transform="matrix(12.5 0 0 12.5 -0.625 164.375)">
<path style="stroke: none; stroke-width: 1; stroke-dasharray: none; stroke-linecap: butt; stroke-dashoffset: 0; stroke-linejoin: miter; stroke-miterlimit: 4; is-custom-font: none; font-file-url: none; fill: rgb(66,139,193); fill-rule: nonzero; opacity: 1;" transform=" translate(-31.95, -45.15)" d="M 10.8 44.6 h 42.3 v 1.1 H 10.8 z" stroke-linecap="round"/>
</g>
		<g transform="matrix(12.5 0 0 12.5 -265 163.75)">
<ellipse style="stroke: none; stroke-width: 1; stroke-dasharray: none; stroke-linecap: butt; stroke-dashoffset: 0; stroke-linejoin: miter; stroke-miterlimit: 4; is-custom-font: none; font-file-url: none; fill: rgb(66,139,193); fill-rule: nonzero; opacity: 1;" cx="0" cy="0" rx="0.5" ry="0.6"/>
</g>
		<g transform="matrix(12.5 0 0 12.5 265 163.75)">
<ellipse style="stroke: none; stroke-width: 1; stroke-dasharray: none; stroke-linecap: butt; stroke-dashoffset: 0; stroke-linejoin: miter; stroke-miterlimit: 4; is-custom-font: none; font-file-url: none; fill: rgb(66,139,193); fill-rule: nonzero; opacity: 1;" cx="0" cy="0" rx="0.5" ry="0.6"/>
</g>
		<g transform="matrix(12.5 0 0 12.5 -0.6053 -78.125)">
<path style="stroke: none; stroke-width: 1; stroke-dasharray: none; stroke-linecap: butt; stroke-dashoffset: 0; stroke-linejoin: miter; stroke-miterlimit: 4; is-custom-font: none; font-file-url: none; fill: rgb(255,206,49); fill-rule: nonzero; opacity: 1;" transform=" translate(-31.9516, -25.75)" d="M 50.7 20.4 c -0.3 -1.1 -0.7 -2.1 -1.4 -3 c -0.7 -0.9 -1.5 -1.7 -2.6 -2.3 c -0.8 -0.4 -1.6 -0.7 -2.5 -0.8 c -0.7 -0.1 -1.5 0 -2.3 0.2 c -1.3 0.3 -2.6 1 -3.9 1.6 c -0.3 0.2 -0.7 0.3 -1.1 0.5 c 0.8 -1.6 1.3 -3.1 1.3 -4.1 H 25.7 c 0 1 0.5 2.5 1.3 4.1 c -0.4 -0.2 -0.7 -0.3 -1.1 -0.5 c -1.3 -0.6 -2.6 -1.3 -3.9 -1.6 c -0.8 -0.2 -1.6 -0.3 -2.3 -0.2 c -0.9 0.1 -1.7 0.3 -2.5 0.8 c -1 0.6 -1.9 1.4 -2.6 2.3 c -0.6 0.9 -1.1 1.9 -1.4 3 c -0.7 2.9 -0.3 6.6 1.3 10.9 c 1.2 3.4 2.8 6.2 3.5 7.6 h 5.3 c -0.2 -0.4 -0.5 -0.8 -0.7 -1.2 c -0.1 -0.2 -0.3 -0.4 -0.4 -0.6 c -2.1 -3.4 -5.7 -11.1 -4.6 -15.5 c 0.3 -1.1 0.8 -1.9 1.8 -2.4 c 0.3 -0.2 0.7 -0.3 1.6 -0.1 c 0.9 0.2 1.9 0.7 3 1.3 c 1.7 0.9 3.6 1.8 5.7 2.1 V 39 h 4.5 V 22.5 c 2.1 -0.3 4 -1.2 5.8 -2.1 c 1.1 -0.5 2.1 -1.1 3 -1.3 c 0.9 -0.2 1.3 -0.1 1.6 0.1 c 0.9 0.5 1.5 1.3 1.8 2.4 c 1.1 4.4 -2.5 12 -4.6 15.5 c -0.1 0.2 -0.3 0.4 -0.4 0.6 c -0.3 0.4 -0.5 0.8 -0.7 1.2 H 46 c 0.8 -1.3 2.3 -4.2 3.5 -7.6 c 1.5 -4.3 1.9 -8 1.2 -10.9" stroke-linecap="round"/>
</g>
		<g transform="matrix(12.5 0 0 12.5 0 -183.125)">
<path style="stroke: none; stroke-width: 1; stroke-dasharray: none; stroke-linecap: butt; stroke-dashoffset: 0; stroke-linejoin: miter; stroke-miterlimit: 4; is-custom-font: none; font-file-url: none; fill: rgb(242,178,0); fill-rule: nonzero; opacity: 1;" transform=" translate(-32, -17.35)" d="M 32 17.1 c -1.7 0 -3.2 -0.7 -4.4 -1.7 c 0.3 2.2 2.1 3.9 4.4 3.9 c 2.2 0 4.1 -1.7 4.4 -3.9 c -1.2 1.1 -2.7 1.7 -4.4 1.7" stroke-linecap="round"/>
</g>
</g>
</g>
</svg>