<svg xmlns="http://www.w3.org/2000/svg" xmlns:xlink="http://www.w3.org/1999/xlink" version="1.1" width="1000" height="1000" viewBox="0 0 1000 1000" xml:space="preserve">
<desc>Created with Fabric.js 3.5.0</desc>
<defs>
</defs>
<rect x="0" y="0" width="100%" height="100%" fill="rgba(255,255,255,0)"/>
<g transform="matrix(0.9465 0.6289 -0.6289 0.9465 500.0035 500.0203)" id="959228">
<g style="" vector-effect="non-scaling-stroke">
		<g transform="matrix(1.5625 0 0 1.5625 0 0)" id="Layer_1">
<polygon style="stroke: none; stroke-width: 1; stroke-dasharray: none; stroke-linecap: butt; stroke-dashoffset: 0; stroke-linejoin: miter; stroke-miterlimit: 4; is-custom-font: none; font-file-url: none; fill: rgb(215,30,0); fill-rule: nonzero; opacity: 1;" points="0,-256 -210.286,0 0,256 210.286,0 "/>
</g>
		<g transform="matrix(1.5625 0 0 1.5625 50.0007 247.7055)" id="Layer_1">
<path style="stroke: none; stroke-width: 1; stroke-dasharray: none; stroke-linecap: butt; stroke-dashoffset: 0; stroke-linejoin: miter; stroke-miterlimit: 4; is-custom-font: none; font-file-url: none; fill: rgb(178,22,6); fill-rule: nonzero; opacity: 1;" transform=" translate(-288.0005, -414.5315)" d="M 248.872 448.656 c -3.162 3.937 -2.533 9.692 1.404 12.853 c 3.937 3.162 9.692 2.533 12.853 -1.404 l 64 -79.698 c 3.162 -3.937 2.533 -9.692 -1.404 -12.853 c -3.937 -3.162 -9.692 -2.533 -12.853 1.404 L 248.872 448.656 z" stroke-linecap="round"/>
</g>
</g>
</g>
</svg>