<svg xmlns="http://www.w3.org/2000/svg" xmlns:xlink="http://www.w3.org/1999/xlink" version="1.1" width="1000" height="1000" viewBox="0 0 1000 1000" xml:space="preserve">
<desc>Created with Fabric.js 3.5.0</desc>
<defs>
</defs>
<rect x="0" y="0" width="100%" height="100%" fill="rgba(255,255,255,0)"/>
<g transform="matrix(0.7207 0.46 -0.46 0.7207 487.53 500)" id="644349">
<g style="" vector-effect="non-scaling-stroke">
		<g transform="matrix(0.9766 0 0 0.9766 0.0096 0.0096)" id="SVGRepo_iconCarrier">
<path style="stroke: rgb(255,215,0); stroke-width: 1; stroke-dasharray: none; stroke-linecap: butt; stroke-dashoffset: 0; stroke-linejoin: miter; stroke-miterlimit: 4; is-custom-font: none; font-file-url: none; fill: rgb(255,215,0); fill-rule: nonzero; opacity: 1;" transform=" translate(-256, -256)" d="M 437.02 74.98 C 388.667 26.628 324.38 0 256 0 S 123.333 26.628 74.98 74.98 S 0 187.62 0 256 s 26.628 132.667 74.98 181.02 S 187.62 512 256 512 s 132.667 -26.628 181.02 -74.98 S 512 324.38 512 256 S 485.372 123.333 437.02 74.98 z M 467.829 369.062 l -41.73 -24.093 c 12.809 -24.39 20.521 -51.852 21.721 -80.969 h 48.033 C 494.643 301.221 485.006 336.979 467.829 369.062 z M 248 447.821 v 48.033 c -37.221 -1.211 -72.979 -10.847 -105.062 -28.024 l 24.093 -41.73 C 191.42 438.908 218.882 446.621 248 447.821 z M 264 447.821 c 29.118 -1.2 56.58 -8.913 80.969 -21.721 l 24.093 41.73 c -32.083 17.177 -67.841 26.813 -105.062 28.024 V 447.821 z M 256 432 c -97.047 0 -176 -78.953 -176 -176 S 158.953 80 256 80 s 176 78.953 176 176 S 353.047 432 256 432 z M 16.146 264 h 48.033 c 1.2 29.118 8.913 56.58 21.721 80.969 l -41.73 24.093 C 26.994 336.979 17.357 301.221 16.146 264 z M 44.171 142.938 l 41.73 24.093 C 73.092 191.42 65.379 218.882 64.179 248 H 16.146 C 17.357 210.779 26.994 175.021 44.171 142.938 z M 264 64.179 V 16.146 c 37.221 1.211 72.979 10.847 105.062 28.024 L 344.969 85.9 C 320.58 73.092 293.118 65.379 264 64.179 z M 248 64.179 c -29.118 1.2 -56.58 8.913 -80.969 21.721 l -24.093 -41.73 C 175.021 26.994 210.779 17.357 248 16.146 V 64.179 z M 447.821 248 c -1.2 -29.118 -8.913 -56.58 -21.721 -80.969 l 41.73 -24.093 c 17.177 32.083 26.813 67.841 28.025 105.062 H 447.821 z M 459.796 129.101 l -41.714 24.083 c -15.168 -23.827 -35.44 -44.098 -59.266 -59.266 l 24.083 -41.714 c 15.337 9.591 29.699 20.983 42.806 34.09 C 438.813 99.401 450.205 113.764 459.796 129.101 z M 86.294 86.294 c 13.107 -13.107 27.47 -24.5 42.806 -34.09 l 24.083 41.714 c -23.827 15.168 -44.099 35.44 -59.266 59.266 l -41.714 -24.083 C 61.795 113.764 73.187 99.401 86.294 86.294 z M 52.204 382.899 l 41.714 -24.083 c 15.168 23.827 35.44 44.098 59.266 59.266 l -24.083 41.714 c -15.337 -9.591 -29.699 -20.983 -42.806 -34.09 C 73.187 412.599 61.795 398.236 52.204 382.899 z M 425.706 425.706 c -13.107 13.107 -27.47 24.5 -42.806 34.09 l -24.083 -41.714 c 23.827 -15.168 44.098 -35.44 59.266 -59.266 l 41.714 24.083 C 450.205 398.236 438.813 412.599 425.706 425.706 z" stroke-linecap="round"/>
</g>
		<g transform="matrix(0.9766 0 0 0.9766 104.8625 -104.8665)" id="SVGRepo_iconCarrier">
<path style="stroke: rgb(255,215,0); stroke-width: 1; stroke-dasharray: none; stroke-linecap: butt; stroke-dashoffset: 0; stroke-linejoin: miter; stroke-miterlimit: 4; is-custom-font: none; font-file-url: none; fill: rgb(255,215,0); fill-rule: nonzero; opacity: 1;" transform=" translate(-363.3787, -148.6163)" d="M 362.101 158.641 c 1.578 1.719 3.733 2.59 5.895 2.59 c 1.933 0 3.872 -0.697 5.408 -2.107 c 3.255 -2.988 3.471 -8.049 0.483 -11.303 c -3.086 -3.361 -6.354 -6.629 -9.714 -9.713 c -3.254 -2.987 -8.315 -2.772 -11.303 0.484 c -2.988 3.255 -2.771 8.315 0.484 11.303 C 356.379 152.671 359.322 155.614 362.101 158.641 z" stroke-linecap="round"/>
</g>
		<g transform="matrix(0.9766 0 0 0.9766 -39.0667 -27.3388)" id="SVGRepo_iconCarrier">
<path style="stroke: rgb(255,215,0); stroke-width: 1; stroke-dasharray: none; stroke-linecap: butt; stroke-dashoffset: 0; stroke-linejoin: miter; stroke-miterlimit: 4; is-custom-font: none; font-file-url: none; fill: rgb(255,215,0); fill-rule: nonzero; opacity: 1;" transform=" translate(-215.9911, -228)" d="M 112 256 c 0 -79.402 64.598 -144 144 -144 c 23.799 0 47.377 5.925 68.187 17.134 c 3.89 2.094 8.742 0.641 10.837 -3.25 c 2.095 -3.89 0.64 -8.742 -3.25 -10.837 C 308.641 102.586 282.439 96 256 96 c -88.224 0 -160 71.776 -160 160 c 0 36.744 12.766 72.633 35.947 101.056 c 1.582 1.939 3.883 2.944 6.205 2.944 c 1.777 0 3.566 -0.59 5.051 -1.801 c 3.424 -2.792 3.936 -7.832 1.144 -11.256 C 123.487 321.368 112 289.07 112 256 z" stroke-linecap="round"/>
</g>
		<g transform="matrix(0.9766 0 0 0.9766 27.3475 39.062)" id="SVGRepo_iconCarrier">
<path style="stroke: rgb(255,215,0); stroke-width: 1; stroke-dasharray: none; stroke-linecap: butt; stroke-dashoffset: 0; stroke-linejoin: miter; stroke-miterlimit: 4; is-custom-font: none; font-file-url: none; fill: rgb(255,215,0); fill-rule: nonzero; opacity: 1;" transform=" translate(-283.9987, -295.9949)" d="M 396.937 180.196 c -2.096 -3.89 -6.949 -5.343 -10.838 -3.247 s -5.343 6.948 -3.247 10.838 C 394.07 208.602 400 232.19 400 256 c 0 79.402 -64.598 144 -144 144 c -33.071 0 -65.37 -11.488 -90.946 -32.349 c -3.423 -2.792 -8.463 -2.28 -11.256 1.144 c -2.792 3.424 -2.281 8.463 1.144 11.256 C 183.365 403.233 219.254 416 256 416 c 88.224 0 160 -71.776 160 -160 C 416 229.549 409.408 203.336 396.937 180.196 z" stroke-linecap="round"/>
</g>
		<g transform="matrix(0.9766 0 0 0.9766 0.003 0.0048)" id="SVGRepo_iconCarrier">
<path style="stroke: rgb(255,215,0); stroke-width: 1; stroke-dasharray: none; stroke-linecap: butt; stroke-dashoffset: 0; stroke-linejoin: miter; stroke-miterlimit: 4; is-custom-font: none; font-file-url: none; fill: rgb(255,215,0); fill-rule: nonzero; opacity: 1;" transform=" translate(-256, -256)" d="M 256 192 c 14.537 0 27.995 6.931 31.309 16.132 C 287.768 209.399 288 210.7 288 212 c 0 13.234 10.766 24 24 24 s 24 -10.766 24 -24 c 0 -6.854 -1.189 -13.633 -3.536 -20.149 c -7.872 -21.851 -27.438 -38.258 -52.966 -44.747 C 277.231 136.21 267.556 128 256 128 c -11.533 0 -21.191 8.177 -23.484 19.038 c -14.871 3.895 -28.288 11.494 -38.259 21.755 C 182.484 180.911 176 196.255 176 212 c 0 37.495 35.888 68 80 68 c 15.105 0 32 8.553 32 20 s -16.895 20 -32 20 s -32 -8.553 -32 -20 c 0 -13.234 -10.766 -24 -24 -24 s -24 10.766 -24 24 c 0 15.745 6.484 31.089 18.257 43.207 c 9.971 10.262 23.388 17.86 38.259 21.755 C 234.809 375.823 244.467 384 256 384 s 21.191 -8.177 23.484 -19.038 c 14.871 -3.895 28.288 -11.494 38.259 -21.755 C 329.516 331.089 336 315.745 336 300 c 0 -37.495 -35.888 -68 -80 -68 c -15.105 0 -32 -8.553 -32 -20 S 240.895 192 256 192 z M 256 248 c 35.29 0 64 23.327 64 52 c 0 23.865 -20.815 45.144 -49.494 50.596 c -3.774 0.718 -6.506 4.017 -6.506 7.859 V 360 c 0 4.411 -3.589 8 -8 8 s -8 -3.589 -8 -8 v -1.545 c 0 -3.842 -2.731 -7.142 -6.506 -7.859 C 212.815 345.144 192 323.865 192 300 c 0 -4.411 3.589 -8 8 -8 s 8 3.589 8 8 c 0 19.851 21.533 36 48 36 s 48 -16.149 48 -36 s -21.533 -36 -48 -36 c -35.29 0 -64 -23.327 -64 -52 c 0 -23.865 20.815 -45.144 49.494 -50.596 c 3.774 -0.718 6.506 -4.017 6.506 -7.859 V 152 c 0 -4.411 3.589 -8 8 -8 s 8 3.589 8 8 v 1.642 c 0 3.853 2.746 7.158 6.533 7.864 c 22.477 4.192 40.439 17.897 46.877 35.767 C 319.129 202.044 320 206.999 320 212 c 0 4.411 -3.589 8 -8 8 s -8 -3.589 -8 -8 c 0 -3.162 -0.554 -6.294 -1.641 -9.301 C 296.696 186.979 277.633 176 256 176 c -26.467 0 -48 16.149 -48 36 S 229.533 248 256 248 z" stroke-linecap="round"/>
</g>
</g>
</g>
</svg>