<svg xmlns="http://www.w3.org/2000/svg" xmlns:xlink="http://www.w3.org/1999/xlink" version="1.1" width="1000" height="1000" viewBox="0 0 1000 1000" xml:space="preserve">
<desc>Created with Fabric.js 3.5.0</desc>
<defs>
</defs>
<rect x="0" y="0" width="100%" height="100%" fill="rgba(255,255,255,0)"/>
<g transform="matrix(0.5434 -0.3088 0.3088 0.5434 499.9999 500.0003)" id="333176">
<g style="" vector-effect="non-scaling-stroke">
		<g transform="matrix(2.1465 0 0 2.1465 -0.0068 -0.0083)" id="Capa_1">
<path style="stroke: none; stroke-width: 1; stroke-dasharray: none; stroke-linecap: butt; stroke-dashoffset: 0; stroke-linejoin: miter; stroke-miterlimit: 4; is-custom-font: none; font-file-url: none; fill: rgb(0,0,0); fill-rule: nonzero; opacity: 1;" transform=" translate(-186.3466, -186.346)" d="M 365.175 258.522 c 0.39 34.31 -6.76 66.64 -24.9 96.23 c -4.52 7.38 -10.49 12.01 -18.74 13.29 c -12.47 1.94 -25.04 4.68 -37.55 4.65 c -50.28 -0.13 -100.57 -0.84 -150.83 -2.05 c -27.57 -0.66 -54.47 -6.58 -81.2 -13.08 c -18.06 -4.4 -29.86 -15.32 -35.42 -33.1 c -4.31 -13.77 -9.97 -27.26 -8.9 -42.11 c 0.44 -6.1 1.07 -12.26 2.43 -18.21 c 2.15 -9.43 7.95 -16.05 17.21 -19.39 c 2.32 -0.84 4.64 -1.69 7.37 -2.68 c -4.41 -22.57 -9.14 -44.78 -12.99 -67.13 c -3.07 -17.75 -6.47 -35.63 -7.22 -53.55 c -1.04 -25.01 14.71 -46.25 37.81 -55.42 c 11.9 -4.73 23.95 -7.94 36.92 -7.17 c 3.71 0.22 7.5 -0.78 12.19 -1.33 c -1.48 -3.31 -2.13 -5.34 -3.22 -7.1 c -1.89 -3.06 -1.96 -5.78 -0.21 -9.09 c 5.73 -10.88 11.24 -21.88 16.6 -32.94 c 2.17 -4.48 5.14 -6.18 10.23 -6.08 c 11.19 0.21 22.39 -0.21 33.59 -0.52 c 16.26 -0.46 32.52 -0.86 48.77 -1.7 c 4.75 -0.25 8.18 0.53 11.25 4.5 c 6.87 8.85 13.98 17.53 21.4 25.92 c 5.44 6.17 8.58 12.41 4.61 20.54 c -0.43 0.86 -0.16 2.06 -0.3 4.85 c 10.5 0 20.27 -0.53 29.96 0.14 c 12.22 0.83 24.69 1.36 36.49 4.29 c 29.04 7.24 33.77 15.99 37.01 41.18 c 2.24 17.39 1.06 35.43 -0.44 53.02 c -2.26 26.59 -6.14 53.04 -9.29 79.55 c -0.07 0.62 0.35 1.3 0.68 2.41 c 4.34 0.83 8.91 1.63 13.45 2.58 c 6.6 1.39 11.25 4.75 12 12.05 C 364.195 253.572 365.145 256.032 365.175 258.522 z M 351.595 295.012 c 2.17 -13 3.73 -26.41 1.5 -39.83 c -0.73 -4.38 -2.82 -6.8 -6.8 -6.99 c -7.18 -0.34 -14.49 -0.85 -21.56 0.09 c -27.56 3.65 -55 8.26 -82.57 11.73 c -30.83 3.88 -61.72 6.92 -92.92 5.38 c -27.1 -1.33 -54.09 -2.97 -80.79 -8.33 c -9.15 -1.83 -18.66 -2.24 -28.03 -2.44 c -7.29 -0.15 -13.59 3 -16.46 10.24 c -6.54 16.53 -4.85 32.65 2.79 49.83 c 4.58 -9.56 8.49 -17.74 12.41 -25.93 c -1.64 10.94 -4.93 21.12 -8.38 31.25 c -1.67 4.92 -0.88 8.89 3.67 12.29 c 6.95 -12.51 12.65 -25.28 23.64 -34.81 c -6.82 13.65 -13.65 27.3 -20.73 41.46 c 3.57 2 5.86 3.28 8.47 4.74 c 6 -14.12 12.25 -27.13 22.07 -37.84 c 0.64 0.35 1.27 0.7 1.9 1.05 c -6.27 12.68 -12.54 25.35 -19.35 39.15 c 6.47 1.72 11.2 2.98 16.25 4.32 c 6.51 -15.26 13.89 -29.06 22.9 -41.9 c 0.73 0.37 1.46 0.73 2.19 1.09 c -6.53 13.67 -13.06 27.34 -19.99 41.86 c 5.43 0.84 9.2 1.42 12.95 1.99 c 6.49 -14.51 13.19 -27.91 22.68 -39.75 c -2.29 14.7 -12.42 26.14 -16.85 41.24 c 5.09 0.79 9.52 1.48 13.91 2.16 c 8.1 -15.23 15.13 -30.12 25.16 -43.28 c -2.06 16.26 -14.35 28.38 -18.37 44.58 c 5.06 0 8.97 0 13.31 0 c 4.6 -12.24 8.88 -24.56 16.7 -34.98 c 0.67 0.3 1.34 0.61 2.01 0.92 c -4.3 11.27 -8.6 22.55 -12.96 33.96 c 10.65 2.23 10.65 2.23 14.25 -5.36 c 1.4 -2.95 2.68 -5.95 4.2 -8.82 c 3.34 -6.36 6.81 -12.66 10.23 -18.99 c 0.78 0.4 1.56 0.8 2.34 1.2 c -4.44 10.76 -8.89 21.51 -13.68 33.11 c 5.03 0 8.53 0 12.13 0 c 5.84 -9.97 8.22 -21.39 15.29 -30.22 c 0.67 0.28 1.34 0.57 2.01 0.85 c -3.5 9.55 -7.01 19.11 -10.52 28.67 c 7.07 2.6 10.83 0.96 13.35 -5.63 c 2.7 -7.05 6.65 -13.63 10.25 -20.32 c 1.02 -1.88 2.72 -3.39 4.1 -5.07 c 0.67 0.39 1.34 0.77 2 1.16 c -4.17 9.76 -8.34 19.53 -12.8 29.97 c 2.27 0.59 3.89 1.18 5.56 1.39 c 1.68 0.22 3.42 0.05 4.35 0.05 c 5.91 -10.77 11.36 -20.72 16.82 -30.67 c 0.65 0.32 1.3 0.63 1.95 0.95 c -2.32 10.41 -9.3 19.04 -13.11 29.78 c 5.63 0 10.45 0 15.12 0 c 3.84 -11.96 12.7 -27.61 19.42 -33.78 c -1.66 13.22 -11.24 22.19 -14.62 33.97 c 4.32 0 7.87 0 11.31 0 c 3.18 -10.78 9.13 -20.62 16.53 -24.9 c -4.18 8.13 -8.37 16.26 -12.99 25.24 c 29.26 -0.06 57.42 1.43 85.37 -4.06 c 5.18 -1.01 8.49 -3.25 11.04 -7.56 C 340.305 332.292 348.365 314.372 351.595 295.012 z M 327.915 200.302 c 3.45 -28.98 8.14 -57.89 6.8 -87.22 c -0.34 -7.48 -2.08 -14.93 -3.5 -22.33 c -1.4 -7.28 -5.77 -12.29 -12.76 -14.89 c -4.03 -1.5 -8.01 -3.28 -12.18 -4.23 c -22.02 -5.02 -44.39 -4.44 -68.09 -4.25 c -0.23 5.18 -4.42 8.93 -2.48 12.56 c 16.06 1.14 30.89 1.43 45.47 3.51 c 8.01 1.14 15.9 4.66 23.29 8.26 c 7.43 3.61 12.78 10.14 13.46 18.56 c 0.94 11.8 1.75 23.8 0.66 35.53 c -2.71 29.07 -6.55 58.03 -9.87 87.04 c -0.26 2.3 -0.04 4.65 -0.04 7.48 c 5.62 -0.76 10.14 -1.36 14.53 -1.95 C 324.835 225.222 326.425 212.772 327.915 200.302 z M 311.045 119.422 c 0.61 -12.27 -5.42 -20.54 -16.91 -24.93 c -20.03 -7.64 -40.86 -7.64 -61.51 -7.12 c -6.33 13.42 -6.29 13.44 -4.72 28.17 c 0.18 1.72 -0.51 3.51 -0.75 5.28 c -0.82 5.97 -1.62 11.94 -2.39 17.62 c 4.85 2.99 9.28 5.46 13.42 8.35 c 8.05 5.62 15.39 11.93 19.64 21.18 c 10.24 22.31 12.2 45.01 3.66 68.32 c -1.29 3.54 -2.2 7.23 -3.76 12.42 c 14.45 -2.62 27.4 -4.96 41.08 -7.43 c 2.9 -22.24 6.19 -43.96 8.44 -65.78 C 309.165 156.882 310.105 138.142 311.045 119.422 z M 249.015 233.352 c 5.18 -12.86 5.45 -26.38 3.41 -39.52 c -1.45 -9.37 -4.28 -19.89 -10.08 -26.94 c -13.89 -16.87 -32.27 -28.09 -54.74 -29.43 c -13.26 -0.78 -26.67 0.44 -39.98 1.31 c -4.58 0.3 -9.15 1.97 -13.54 3.53 c -18.44 6.57 -29.93 20.79 -39.79 36.69 c -8.2 13.22 -9.29 27.91 -8.1 42.85 c 0.38 4.77 2.33 9.41 3.85 15.21 c 3.12 -3.29 5.21 -5.5 7.99 -8.44 c -0.01 7.11 -8.83 10.91 -3.49 18.11 c 3.28 -2.34 6.23 -4.44 9.18 -6.53 c 0.31 0.36 0.63 0.73 0.95 1.1 c -1.7 2.65 -3.4 5.31 -6.47 10.09 c 6.02 -1.69 9.57 -2.69 13.11 -3.69 c 1.85 7.61 7.58 3.64 13.89 4.93 c -3.11 -4.16 -4.61 -6.14 -6.09 -8.14 c -16.89 -22.89 -13.1 -49.27 9.36 -66.92 c 20.83 -16.35 44.06 -19.1 68.61 -11.58 c 24.05 7.36 37.79 31.66 32.92 56.25 c -0.4 2.02 -0.77 4.06 -1.15 6.06 c 1.98 0.46 3.36 0.79 5.04 1.18 c -2.52 4.55 -8.15 5.89 -8.33 11.5 c 2.57 -0.31 4.4 -0.52 6.23 -0.74 c 0.43 0.67 0.85 1.34 1.28 2.01 c -3.4 2.97 -6.79 5.94 -11.66 10.2 c 8.67 -1.16 15.55 -2.07 22.34 -2.98 C 245.635 243.622 246.995 238.352 249.015 233.352 z M 178.165 38.412 c 17.8 0 35.01 0 54.2 0 c -8.18 -10.33 -14.95 -18.87 -21.68 -27.36 C 199.515 20.442 188.945 29.342 178.165 38.412 z M 216.195 109.162 c 5.23 -21.94 17.73 -40.67 18.12 -64.41 c -20.21 0.66 -39.81 1.3 -60.56 1.98 c 0.9 21.77 1.75 42.08 2.6 62.43 C 190.365 109.162 203.145 109.162 216.195 109.162 z M 219.765 218.462 c 3.42 -19.05 -6.59 -37.01 -24.7 -43.31 c -24.61 -8.56 -47.61 -4.35 -66.42 15.74 c -4.23 4.52 -7.17 10.93 -8.88 16.98 c -4.07 14.4 6.01 37.06 18.96 44.3 c 1.77 1 4.11 1.23 6.22 1.35 c 10.47 0.57 20.94 0.99 31.42 1.46 c 0 -0.48 0.01 -0.96 0.02 -1.45 c 8.31 0 16.64 -0.33 24.93 0.11 c 6.22 0.33 9.52 -2.5 11.09 -8 C 214.975 236.612 218.115 227.662 219.765 218.462 z M 214.595 133.182 c 0.9 -5.55 1.62 -10.01 2.44 -15.07 c -30.88 1.74 -61.04 -3.82 -92.24 -0.56 c 2.87 6.56 5.14 11.73 7.38 16.85 C 159.765 129.402 186.845 124.052 214.595 133.182 z M 201.065 9.492 c -23.03 0 -44.94 0 -69.52 0 c 13.72 9.85 25.56 18.34 37.9 27.19 C 179.945 27.192 192.225 21.062 201.065 9.492 z M 133.225 109.572 c 12.64 0 24.4 0 37.62 0 c -0.88 -20.97 -1.73 -41.23 -2.63 -62.53 c -20.62 0 -39.96 0 -60.27 0 C 116.395 67.922 124.845 88.842 133.225 109.572 z M 161.695 40.502 c 0.24 -0.63 0.48 -1.26 0.72 -1.89 c -12.98 -9.3 -25.95 -18.59 -40.27 -28.86 c -5.46 10.58 -10.98 20.27 -15.42 30.75 C 125.565 40.502 143.625 40.502 161.695 40.502 z M 124.345 137.182 c -0.74 -2.67 -1.8 -5.37 -2.22 -8.17 c -1.01 -6.8 -8.93 -13.39 -0.72 -20.63 c 0.49 -0.43 -0.38 -2.7 -0.94 -3.96 c -2.36 -5.22 -4.84 -10.39 -7.33 -15.68 c -12.84 -0.08 -25.26 0.2 -36.69 4.86 c -14.71 6 -26.36 16.15 -28.01 32.88 c -1.07 10.99 0.08 22.41 1.69 33.41 c 2.87 19.63 7.13 39.04 10.22 58.64 c 1.28 8.08 1.03 16.4 1.49 24.98 c 5.72 0.94 10.96 1.81 17.64 2.92 C 64.005 201.792 85.045 160.872 124.345 137.182 z M 111.745 82.312 c -2.34 -5.27 -4.18 -9.41 -5.86 -13.18 c -5.47 0.27 -9.8 0.86 -14.09 0.61 c -11.43 -0.65 -22.09 1.84 -32.73 5.93 c -20.01 7.69 -33.61 24.97 -32.39 46.3 c 1.15 20.08 4.74 40.05 7.74 59.98 c 3 19.88 6.62 39.65 10.08 60.14 c 2.18 0 5.33 0 10.13 0 c 0 -4.39 0.48 -7.99 -0.08 -11.42 c -3.78 -23.48 -8.43 -46.85 -11.45 -70.43 c -1.54 -12.04 -1.01 -24.5 -0.02 -36.66 c 0.68 -8.35 5.67 -15.29 11.58 -21.54 c 11.66 -12.31 26.27 -17.22 42.6 -18.47 C 101.785 83.232 106.305 82.792 111.745 82.312 z" stroke-linecap="round"/>
</g>
		<g transform="matrix(2.1465 0 0 2.1465 1.4943 253.3283)" id="Capa_1">
<path style="stroke: none; stroke-width: 1; stroke-dasharray: none; stroke-linecap: butt; stroke-dashoffset: 0; stroke-linejoin: miter; stroke-miterlimit: 4; is-custom-font: none; font-file-url: none; fill: rgb(0,113,188); fill-rule: nonzero; opacity: 1;" transform=" translate(-187.0456, -304.364)" d="M 353.095 255.182 c 2.23 13.42 0.67 26.83 -1.5 39.83 c -3.23 19.36 -11.29 37.28 -21.35 54.21 c -2.55 4.31 -5.86 6.55 -11.04 7.56 c -27.95 5.49 -56.11 4 -85.37 4.06 c 4.62 -8.98 8.81 -17.11 12.99 -25.24 c -7.4 4.28 -13.35 14.12 -16.53 24.9 c -3.44 0 -6.99 0 -11.31 0 c 3.38 -11.78 12.96 -20.75 14.62 -33.97 c -6.72 6.17 -15.58 21.82 -19.42 33.78 c -4.67 0 -9.49 0 -15.12 0 c 3.81 -10.74 10.79 -19.37 13.11 -29.78 c -0.65 -0.32 -1.3 -0.63 -1.95 -0.95 c -5.46 9.95 -10.91 19.9 -16.82 30.67 c -0.93 0 -2.67 0.17 -4.35 -0.05 c -1.67 -0.21 -3.29 -0.8 -5.56 -1.39 c 4.46 -10.44 8.63 -20.21 12.8 -29.97 c -0.66 -0.39 -1.33 -0.77 -2 -1.16 c -1.38 1.68 -3.08 3.19 -4.1 5.07 c -3.6 6.69 -7.55 13.27 -10.25 20.32 c -2.52 6.59 -6.28 8.23 -13.35 5.63 c 3.51 -9.56 7.02 -19.12 10.52 -28.67 c -0.67 -0.28 -1.34 -0.57 -2.01 -0.85 c -7.07 8.83 -9.45 20.25 -15.29 30.22 c -3.6 0 -7.1 0 -12.13 0 c 4.79 -11.6 9.24 -22.35 13.68 -33.11 c -0.78 -0.4 -1.56 -0.8 -2.34 -1.2 c -3.42 6.33 -6.89 12.63 -10.23 18.99 c -1.52 2.87 -2.8 5.87 -4.2 8.82 c -3.6 7.59 -3.6 7.59 -14.25 5.36 c 4.36 -11.41 8.66 -22.69 12.96 -33.96 c -0.67 -0.31 -1.34 -0.62 -2.01 -0.92 c -7.82 10.42 -12.1 22.74 -16.7 34.98 c -4.34 0 -8.25 0 -13.31 0 c 4.02 -16.2 16.31 -28.32 18.37 -44.58 c -10.03 13.16 -17.06 28.05 -25.16 43.28 c -4.39 -0.68 -8.82 -1.37 -13.91 -2.16 c 4.43 -15.1 14.56 -26.54 16.85 -41.24 c -9.49 11.84 -16.19 25.24 -22.68 39.75 c -3.75 -0.57 -7.52 -1.15 -12.95 -1.99 c 6.93 -14.52 13.46 -28.19 19.99 -41.86 c -0.73 -0.36 -1.46 -0.72 -2.19 -1.09 c -9.01 12.84 -16.39 26.64 -22.9 41.9 c -5.05 -1.34 -9.78 -2.6 -16.25 -4.32 c 6.81 -13.8 13.08 -26.47 19.35 -39.15 c -0.63 -0.35 -1.26 -0.7 -1.9 -1.05 c -9.82 10.71 -16.07 23.72 -22.07 37.84 c -2.61 -1.46 -4.9 -2.74 -8.47 -4.74 c 7.08 -14.16 13.91 -27.81 20.73 -41.46 c -10.99 9.53 -16.69 22.3 -23.64 34.81 c -4.55 -3.4 -5.34 -7.37 -3.67 -12.29 c 3.45 -10.13 6.74 -20.31 8.38 -31.25 c -3.92 8.19 -7.83 16.37 -12.41 25.93 c -7.64 -17.18 -9.33 -33.3 -2.79 -49.83 c 2.87 -7.24 9.17 -10.39 16.46 -10.24 c 9.37 0.2 18.88 0.61 28.03 2.44 c 26.7 5.36 53.69 7 80.79 8.33 c 31.2 1.54 62.09 -1.5 92.92 -5.38 c 27.57 -3.47 55.01 -8.08 82.57 -11.73 c 7.07 -0.94 14.38 -0.43 21.56 -0.09 C 350.275 248.382 352.365 250.802 353.095 255.182 z M 268.305 356.752 c 1.42 -3.74 2.85 -7.47 4.27 -11.21 c -0.96 -0.36 -1.93 -0.73 -2.89 -1.09 c -1.44 3.73 -2.87 7.46 -4.3 11.19 C 266.355 356.012 267.325 356.382 268.305 356.752 z M 247.685 357.962 c 4.08 -6.07 7.96 -11.32 7.39 -20.63 C 246.885 348.872 246.405 350.232 247.685 357.962 z" stroke-linecap="round"/>
</g>
		<g transform="matrix(2.1465 0 0 2.1465 211.9167 -69.8847)" id="Capa_1">
<path style="stroke: none; stroke-width: 1; stroke-dasharray: none; stroke-linecap: butt; stroke-dashoffset: 0; stroke-linejoin: miter; stroke-miterlimit: 4; is-custom-font: none; font-file-url: none; fill: rgb(0,113,188); fill-rule: nonzero; opacity: 1;" transform=" translate(-285.0716, -153.7909)" d="M 334.715 113.082 c 1.34 29.33 -3.35 58.24 -6.8 87.22 c -1.49 12.47 -3.08 24.92 -4.71 38.07 c -4.39 0.59 -8.91 1.19 -14.53 1.95 c 0 -2.83 -0.22 -5.18 0.04 -7.48 c 3.32 -29.01 7.16 -57.97 9.87 -87.04 c 1.09 -11.73 0.28 -23.73 -0.66 -35.53 c -0.68 -8.42 -6.03 -14.95 -13.46 -18.56 c -7.39 -3.6 -15.28 -7.12 -23.29 -8.26 c -14.58 -2.08 -29.41 -2.37 -45.47 -3.51 c -1.94 -3.63 2.25 -7.38 2.48 -12.56 c 23.7 -0.19 46.07 -0.77 68.09 4.25 c 4.17 0.95 8.15 2.73 12.18 4.23 c 6.99 2.6 11.36 7.61 12.76 14.89 C 332.635 98.152 334.375 105.602 334.715 113.082 z" stroke-linecap="round"/>
</g>
		<g transform="matrix(2.1465 0 0 2.1465 175.1133 -39.501)" id="Capa_1">
<path style="stroke: none; stroke-width: 1; stroke-dasharray: none; stroke-linecap: butt; stroke-dashoffset: 0; stroke-linejoin: miter; stroke-miterlimit: 4; is-custom-font: none; font-file-url: none; fill: rgb(46,49,146); fill-rule: nonzero; opacity: 1;" transform=" translate(-267.9261, -167.9455)" d="M 294.135 94.492 c 11.49 4.39 17.52 12.66 16.91 24.93 c -0.94 18.72 -1.88 37.46 -3.8 56.08 c -2.25 21.82 -5.54 43.54 -8.44 65.78 c -13.68 2.47 -26.63 4.81 -41.08 7.43 c 1.56 -5.19 2.47 -8.88 3.76 -12.42 c 8.54 -23.31 6.58 -46.01 -3.66 -68.32 c -4.25 -9.25 -11.59 -15.56 -19.64 -21.18 c -4.14 -2.89 -8.57 -5.36 -13.42 -8.35 c 0.77 -5.68 1.57 -11.65 2.39 -17.62 c 0.24 -1.77 0.93 -3.56 0.75 -5.28 c -1.57 -14.73 -1.61 -14.75 4.72 -28.17 C 253.275 86.852 274.105 86.852 294.135 94.492 z" stroke-linecap="round"/>
</g>
		<g transform="matrix(2.1465 0 0 2.1465 177.3774 352.5825)" id="Capa_1">
<path style="stroke: none; stroke-width: 1; stroke-dasharray: none; stroke-linecap: butt; stroke-dashoffset: 0; stroke-linejoin: miter; stroke-miterlimit: 4; is-custom-font: none; font-file-url: none; fill: rgb(0,0,0); fill-rule: nonzero; opacity: 1;" transform=" translate(-268.98, -350.602)" d="M 272.575 345.542 c -1.42 3.74 -2.85 7.47 -4.27 11.21 c -0.98 -0.37 -1.95 -0.74 -2.92 -1.11 c 1.43 -3.73 2.86 -7.46 4.3 -11.19 C 270.645 344.812 271.615 345.182 272.575 345.542 z" stroke-linecap="round"/>
</g>
		<g transform="matrix(2.1465 0 0 2.1465 139.0817 346.2393)" id="Capa_1">
<path style="stroke: none; stroke-width: 1; stroke-dasharray: none; stroke-linecap: butt; stroke-dashoffset: 0; stroke-linejoin: miter; stroke-miterlimit: 4; is-custom-font: none; font-file-url: none; fill: rgb(0,0,0); fill-rule: nonzero; opacity: 1;" transform=" translate(-251.1394, -347.647)" d="M 255.075 337.332 c 0.57 9.31 -3.31 14.56 -7.39 20.63 C 246.405 350.232 246.885 348.872 255.075 337.332 z" stroke-linecap="round"/>
</g>
		<g transform="matrix(2.1465 0 0 2.1465 -35.7344 18.3959)" id="Capa_1">
<path style="stroke: none; stroke-width: 1; stroke-dasharray: none; stroke-linecap: butt; stroke-dashoffset: 0; stroke-linejoin: miter; stroke-miterlimit: 4; is-custom-font: none; font-file-url: none; fill: rgb(251,176,59); fill-rule: nonzero; opacity: 1;" transform=" translate(-169.7004, -194.9172)" d="M 252.425 193.832 c 2.04 13.14 1.77 26.66 -3.41 39.52 c -2.02 5 -3.38 10.27 -5.26 16.11 c -6.79 0.91 -13.67 1.82 -22.34 2.98 c 4.87 -4.26 8.26 -7.23 11.66 -10.2 c -0.43 -0.67 -0.85 -1.34 -1.28 -2.01 c -1.83 0.22 -3.66 0.43 -6.23 0.74 c 0.18 -5.61 5.81 -6.95 8.33 -11.5 c -1.68 -0.39 -3.06 -0.72 -5.04 -1.18 c 0.38 -2 0.75 -4.04 1.15 -6.06 c 4.87 -24.59 -8.87 -48.89 -32.92 -56.25 c -24.55 -7.52 -47.78 -4.77 -68.61 11.58 c -22.46 17.65 -26.25 44.03 -9.36 66.92 c 1.48 2 2.98 3.98 6.09 8.14 c -6.31 -1.29 -12.04 2.68 -13.89 -4.93 c -3.54 1 -7.09 2 -13.11 3.69 c 3.07 -4.78 4.77 -7.44 6.47 -10.09 c -0.32 -0.37 -0.64 -0.74 -0.95 -1.1 c -2.95 2.09 -5.9 4.19 -9.18 6.53 c -5.34 -7.2 3.48 -11 3.49 -18.11 c -2.78 2.94 -4.87 5.15 -7.99 8.44 c -1.52 -5.8 -3.47 -10.44 -3.85 -15.21 c -1.19 -14.94 -0.1 -29.63 8.1 -42.85 c 9.86 -15.9 21.35 -30.12 39.79 -36.69 c 4.39 -1.56 8.96 -3.23 13.54 -3.53 c 13.31 -0.87 26.72 -2.09 39.98 -1.31 c 22.47 1.34 40.85 12.56 54.74 29.43 C 248.145 173.942 250.975 184.462 252.425 193.832 z" stroke-linecap="round"/>
</g>
		<g transform="matrix(2.1465 0 0 2.1465 40.6092 -346.9123)" id="Capa_1">
<path style="stroke: none; stroke-width: 1; stroke-dasharray: none; stroke-linecap: butt; stroke-dashoffset: 0; stroke-linejoin: miter; stroke-miterlimit: 4; is-custom-font: none; font-file-url: none; fill: rgb(101,191,186); fill-rule: nonzero; opacity: 1;" transform=" translate(-205.265, -24.732)" d="M 232.365 38.412 c -19.19 0 -36.4 0 -54.2 0 c 10.78 -9.07 21.35 -17.97 32.52 -27.36 C 217.415 19.542 224.185 28.082 232.365 38.412 z" stroke-linecap="round"/>
</g>
		<g transform="matrix(2.1465 0 0 2.1465 37.9689 -234.8098)" id="Capa_1">
<path style="stroke: none; stroke-width: 1; stroke-dasharray: none; stroke-linecap: butt; stroke-dashoffset: 0; stroke-linejoin: miter; stroke-miterlimit: 4; is-custom-font: none; font-file-url: none; fill: rgb(41,214,226); fill-rule: nonzero; opacity: 1;" transform=" translate(-204.035, -76.957)" d="M 234.315 44.752 c -0.39 23.74 -12.89 42.47 -18.12 64.41 c -13.05 0 -25.83 0 -39.84 0 c -0.85 -20.35 -1.7 -40.66 -2.6 -62.43 C 194.505 46.052 214.105 45.412 234.315 44.752 z" stroke-linecap="round"/>
</g>
		<g transform="matrix(2.1465 0 0 2.1465 -35.8627 57.1487)" id="Capa_1">
<path style="stroke: none; stroke-width: 1; stroke-dasharray: none; stroke-linecap: butt; stroke-dashoffset: 0; stroke-linejoin: miter; stroke-miterlimit: 4; is-custom-font: none; font-file-url: none; fill: rgb(46,49,146); fill-rule: nonzero; opacity: 1;" transform=" translate(-169.6399, -212.9705)" d="M 195.065 175.152 c 18.11 6.3 28.12 24.26 24.7 43.31 c -1.65 9.2 -4.79 18.15 -7.36 27.18 c -1.57 5.5 -4.87 8.33 -11.09 8 c -8.29 -0.44 -16.62 -0.11 -24.93 -0.11 c -0.01 0.49 -0.02 0.97 -0.02 1.45 c -10.48 -0.47 -20.95 -0.89 -31.42 -1.46 c -2.11 -0.12 -4.45 -0.35 -6.22 -1.35 c -12.95 -7.24 -23.03 -29.9 -18.96 -44.3 c 1.71 -6.05 4.65 -12.46 8.88 -16.98 C 147.455 170.802 170.455 166.592 195.065 175.152 z" stroke-linecap="round"/>
</g>
		<g transform="matrix(2.1465 0 0 2.1465 -33.1254 -130.7081)" id="Capa_1">
<path style="stroke: none; stroke-width: 1; stroke-dasharray: none; stroke-linecap: butt; stroke-dashoffset: 0; stroke-linejoin: miter; stroke-miterlimit: 4; is-custom-font: none; font-file-url: none; fill: rgb(247,147,30); fill-rule: nonzero; opacity: 1;" transform=" translate(-170.915, -125.4539)" d="M 217.035 118.112 c -0.82 5.06 -1.54 9.52 -2.44 15.07 c -27.75 -9.13 -54.83 -3.78 -82.42 1.22 c -2.24 -5.12 -4.51 -10.29 -7.38 -16.85 C 155.995 114.292 186.155 119.852 217.035 118.112 z" stroke-linecap="round"/>
</g>
		<g transform="matrix(2.1465 0 0 2.1465 -43.0205 -350.4434)" id="Capa_1">
<path style="stroke: none; stroke-width: 1; stroke-dasharray: none; stroke-linecap: butt; stroke-dashoffset: 0; stroke-linejoin: miter; stroke-miterlimit: 4; is-custom-font: none; font-file-url: none; fill: rgb(137,255,255); fill-rule: nonzero; opacity: 1;" transform=" translate(-166.305, -23.087)" d="M 131.545 9.492 c 24.58 0 46.49 0 69.52 0 c -8.84 11.57 -21.12 17.7 -31.62 27.19 C 157.105 27.832 145.265 19.342 131.545 9.492 z" stroke-linecap="round"/>
</g>
		<g transform="matrix(2.1465 0 0 2.1465 -100.7838 -231.9119)" id="Capa_1">
<path style="stroke: none; stroke-width: 1; stroke-dasharray: none; stroke-linecap: butt; stroke-dashoffset: 0; stroke-linejoin: miter; stroke-miterlimit: 4; is-custom-font: none; font-file-url: none; fill: rgb(41,171,226); fill-rule: nonzero; opacity: 1;" transform=" translate(-139.395, -78.307)" d="M 170.845 109.572 c -13.22 0 -24.98 0 -37.62 0 c -8.38 -20.73 -16.83 -41.65 -25.28 -62.53 c 20.31 0 39.65 0 60.27 0 C 169.115 68.342 169.965 88.602 170.845 109.572 z M 142.175 69.702 c -0.49 -0.5 -0.99 -1.01 -1.48 -1.51 c -2.75 2.69 -5.49 5.38 -8.24 8.08 c 0.48 0.44 0.96 0.89 1.44 1.33 C 136.655 74.972 139.415 72.332 142.175 69.702 z M 132.355 67.072 c 2.69 -3.48 5.38 -6.96 8.08 -10.43 c -0.7 -0.53 -1.4 -1.05 -2.09 -1.58 c -2.68 3.5 -5.35 6.99 -8.02 10.48 C 131.005 66.052 131.675 66.562 132.355 67.072 z" stroke-linecap="round"/>
</g>
		<g transform="matrix(2.1465 0 0 2.1465 -111.1408 -346.0645)" id="Capa_1">
<path style="stroke: none; stroke-width: 1; stroke-dasharray: none; stroke-linecap: butt; stroke-dashoffset: 0; stroke-linejoin: miter; stroke-miterlimit: 4; is-custom-font: none; font-file-url: none; fill: rgb(101,134,226); fill-rule: nonzero; opacity: 1;" transform=" translate(-134.57, -25.127)" d="M 162.415 38.612 c -0.24 0.63 -0.48 1.26 -0.72 1.89 c -18.07 0 -36.13 0 -54.97 0 c 4.44 -10.48 9.96 -20.17 15.42 -30.75 C 136.465 20.022 149.435 29.312 162.415 38.612 z" stroke-linecap="round"/>
</g>
		<g transform="matrix(2.1465 0 0 2.1465 -105.2475 -243.5236)" id="Capa_1">
<path style="stroke: none; stroke-width: 1; stroke-dasharray: none; stroke-linecap: butt; stroke-dashoffset: 0; stroke-linejoin: miter; stroke-miterlimit: 4; is-custom-font: none; font-file-url: none; fill: rgb(0,0,0); fill-rule: nonzero; opacity: 1;" transform=" translate(-137.315, -72.897)" d="M 140.695 68.192 c 0.49 0.5 0.99 1.01 1.48 1.51 c -2.76 2.63 -5.52 5.27 -8.28 7.9 c -0.48 -0.44 -0.96 -0.89 -1.44 -1.33 C 135.205 73.572 137.945 70.882 140.695 68.192 z" stroke-linecap="round"/>
</g>
		<g transform="matrix(2.1465 0 0 2.1465 -109.401 -268.9172)" id="Capa_1">
<path style="stroke: none; stroke-width: 1; stroke-dasharray: none; stroke-linecap: butt; stroke-dashoffset: 0; stroke-linejoin: miter; stroke-miterlimit: 4; is-custom-font: none; font-file-url: none; fill: rgb(0,0,0); fill-rule: nonzero; opacity: 1;" transform=" translate(-135.38, -61.067)" d="M 140.435 56.642 c -2.7 3.47 -5.39 6.95 -8.08 10.43 c -0.68 -0.51 -1.35 -1.02 -2.03 -1.53 c 2.67 -3.49 5.34 -6.98 8.02 -10.48 C 139.035 55.592 139.735 56.112 140.435 56.642 z" stroke-linecap="round"/>
</g>
		<g transform="matrix(2.1465 0 0 2.1465 -215.0081 -40.2816)" id="Capa_1">
<path style="stroke: none; stroke-width: 1; stroke-dasharray: none; stroke-linecap: butt; stroke-dashoffset: 0; stroke-linejoin: miter; stroke-miterlimit: 4; is-custom-font: none; font-file-url: none; fill: rgb(46,49,146); fill-rule: nonzero; opacity: 1;" transform=" translate(-86.1821, -167.5819)" d="M 122.125 129.012 c 0.42 2.8 1.48 5.5 2.22 8.17 c -39.3 23.69 -60.34 64.61 -44.87 109.25 c -6.68 -1.11 -11.92 -1.98 -17.64 -2.92 c -0.46 -8.58 -0.21 -16.9 -1.49 -24.98 c -3.09 -19.6 -7.35 -39.01 -10.22 -58.64 c -1.61 -11 -2.76 -22.42 -1.69 -33.41 c 1.65 -16.73 13.3 -26.88 28.01 -32.88 c 11.43 -4.66 23.85 -4.94 36.69 -4.86 c 2.49 5.29 4.97 10.46 7.33 15.68 c 0.56 1.26 1.43 3.53 0.94 3.96 C 113.195 115.622 121.115 122.212 122.125 129.012 z M 63.215 128.952 c 3.68 -4.49 7.37 -8.97 11.05 -13.46 c -0.52 -0.5 -1.05 -1 -1.57 -1.5 C 68.215 117.952 63.065 121.412 63.215 128.952 z M 64.705 159.532 c 1.76 -2.41 3.51 -4.82 5.26 -7.22 c -0.64 -0.58 -1.29 -1.16 -1.94 -1.74 c -1.71 2.58 -3.41 5.16 -5.12 7.74 C 63.505 158.722 64.105 159.122 64.705 159.532 z" stroke-linecap="round"/>
</g>
		<g transform="matrix(2.1465 0 0 2.1465 -251.5211 -65.9758)" id="Capa_1">
<path style="stroke: none; stroke-width: 1; stroke-dasharray: none; stroke-linecap: butt; stroke-dashoffset: 0; stroke-linejoin: miter; stroke-miterlimit: 4; is-custom-font: none; font-file-url: none; fill: rgb(0,113,188); fill-rule: nonzero; opacity: 1;" transform=" translate(-69.172, -155.612)" d="M 105.885 69.132 c 1.68 3.77 3.52 7.91 5.86 13.18 c -5.44 0.48 -9.96 0.92 -14.49 1.26 c -16.33 1.25 -30.94 6.16 -42.6 18.47 c -5.91 6.25 -10.9 13.19 -11.58 21.54 c -0.99 12.16 -1.52 24.62 0.02 36.66 c 3.02 23.58 7.67 46.95 11.45 70.43 c 0.56 3.43 0.08 7.03 0.08 11.42 c -4.8 0 -7.95 0 -10.13 0 c -3.46 -20.49 -7.08 -40.26 -10.08 -60.14 c -3 -19.93 -6.59 -39.9 -7.74 -59.98 c -1.22 -21.33 12.38 -38.61 32.39 -46.3 c 10.64 -4.09 21.3 -6.58 32.73 -5.93 C 96.085 69.992 100.415 69.402 105.885 69.132 z" stroke-linecap="round"/>
</g>
		<g transform="matrix(2.1465 0 0 2.1465 -252.4502 -139.2553)" id="Capa_1">
<path style="stroke: none; stroke-width: 1; stroke-dasharray: none; stroke-linecap: butt; stroke-dashoffset: 0; stroke-linejoin: miter; stroke-miterlimit: 4; is-custom-font: none; font-file-url: none; fill: rgb(0,0,0); fill-rule: nonzero; opacity: 1;" transform=" translate(-68.7384, -121.472)" d="M 74.265 115.492 c -3.68 4.49 -7.37 8.97 -11.05 13.46 c -0.15 -7.54 5 -11 9.48 -14.96 C 73.215 114.492 73.745 114.992 74.265 115.492 z" stroke-linecap="round"/>
</g>
		<g transform="matrix(2.1465 0 0 2.1465 -257.3945 -67.1742)" id="Capa_1">
<path style="stroke: none; stroke-width: 1; stroke-dasharray: none; stroke-linecap: butt; stroke-dashoffset: 0; stroke-linejoin: miter; stroke-miterlimit: 4; is-custom-font: none; font-file-url: none; fill: rgb(0,0,0); fill-rule: nonzero; opacity: 1;" transform=" translate(-66.435, -155.052)" d="M 69.965 152.312 c -1.75 2.4 -3.5 4.81 -5.26 7.22 c -0.6 -0.41 -1.2 -0.81 -1.8 -1.22 c 1.71 -2.58 3.41 -5.16 5.12 -7.74 C 68.675 151.152 69.325 151.732 69.965 152.312 z" stroke-linecap="round"/>
</g>
</g>
</g>
</svg>