<svg width="100" height="58" viewBox="0 0 100 58" fill="none" xmlns="http://www.w3.org/2000/svg">
<g clip-path="url(#clip0_1911_38845)">
<path d="M6.48427 15.1002C6.46118 8.41201 10.7341 4.70659 18.5871 4.6802C24.2425 4.6604 25.2489 8.35921 25.2555 9.70214C25.2654 12.2758 21.6161 15.0078 21.6161 15.0078C21.6161 15.0078 21.8174 16.6081 24.9421 16.5982C28.0667 16.5883 31.1122 14.5228 31.0924 9.35898C31.0694 3.41976 24.8563 0.707518 18.7158 0.730615C13.5783 0.750412 -0.0488708 1.47302 0.000622744 15.0045C0.0435171 27.0249 22.7082 28.084 22.7379 35.7819C22.7676 44.1397 13.387 46.39 10.2293 46.4032C7.0683 46.4131 5.76827 44.1463 5.76497 42.9024C5.74187 36.135 12.473 34.2476 12.473 34.2476C12.473 33.7494 12.077 31.4925 9.47038 31.5024C2.75246 31.5222 0.0765128 37.303 0.0963102 42.9453C0.112808 47.7429 3.50476 50.7389 8.62569 50.7224C18.4155 50.6861 29.4559 45.9083 29.4163 35.2936C29.38 25.3685 6.51397 22.775 6.48427 15.1002Z" fill="white"/>
<path d="M99.8126 41.6913C99.7334 41.5032 99.5156 41.5494 99.2253 41.787C98.1133 42.7043 95.5726 45.301 89.6268 45.3241C78.791 45.3637 76.9136 27.4999 76.9136 27.4999C76.9136 27.4999 85.1691 21.3297 86.4592 18.8451C87.7494 16.3572 83.6447 15.8062 83.6447 15.8062C83.6447 15.8062 77.8672 22.8376 73.7757 24.9031C74.2145 21.8477 77.2402 14.8757 77.425 10.8667C77.6098 6.85776 72.6011 7.83443 71.8026 8.22048C71.8092 9.96925 67.3877 25.86 65.7776 34.5939C64.8306 36.1051 63.4778 37.8407 62.2668 37.8473C61.564 37.8473 61.3066 36.5473 61.3 34.6797C61.2901 32.0928 62.7222 27.9486 62.7123 25.431C62.7057 23.6889 61.9105 23.5833 61.2241 23.5866C61.0724 23.5866 60.2442 23.6097 60.0957 23.6097C58.3304 23.6163 58.9078 22.1018 57.3241 22.1084C52.4539 22.1249 46.254 27.4405 45.9867 35.4683C44.3436 36.5572 42.0438 37.9265 40.8691 37.9331C39.6384 37.9364 39.3315 36.7947 39.3282 35.8082C39.3216 34.0792 42.1262 23.801 42.1262 23.801C42.1262 23.801 45.6865 22.8871 47.2439 22.5835C48.4218 22.3558 48.7485 22.27 49.2137 21.6992C49.679 21.1317 50.5632 19.957 51.2858 18.9012C52.0085 17.8453 51.299 17.0303 49.9627 17.0369C48.2107 17.0435 43.522 18.1489 43.522 18.1489C43.522 18.1489 45.7723 8.43495 45.7723 8.23698C45.7723 8.0324 45.5083 7.93672 45.1388 7.94002C44.2842 7.94002 42.7631 8.40196 41.7864 8.74841C40.295 9.27964 39.0807 11.1109 38.8366 11.9622C38.5924 12.8135 36.9063 19.4786 36.9063 19.4786C36.9063 19.4786 27.8754 22.5967 26.6414 23.0652C26.5589 23.0949 26.5127 23.1675 26.5127 23.2434C26.5127 23.3226 27.5488 27.2755 29.6638 27.2689C31.1882 27.2623 35.6294 25.4442 35.6294 25.4442C35.6294 25.4442 33.3428 34.5477 33.356 37.5701C33.3626 39.5169 34.2733 41.7936 38.0711 41.7804C41.6115 41.7672 44.6966 39.9557 46.4289 38.6854C47.3759 41.0809 49.613 41.7408 51.1407 41.7342C54.5656 41.721 57.2086 39.0021 57.5385 38.6359C57.984 39.6852 59.0299 41.7045 61.4221 41.6946C62.7749 41.6913 64.1773 40.1669 65.21 38.7085C65.1935 39.0747 65.1968 39.3816 65.2232 39.6258C65.6357 43.3939 71.2317 41.1799 71.5287 40.6519C71.7168 37.9265 71.598 32.3535 72.6868 28.9154C74.1288 40.6486 79.6093 48.5445 89.4552 48.5082C94.9622 48.4884 97.7801 46.9046 98.9547 45.598C100.311 44.0934 100.037 42.2456 99.8093 41.6946L99.8126 41.6913ZM52.5628 37.8242C47.8345 37.8407 54.008 25.5795 58.0434 25.563C58.05 27.1435 57.9609 37.8044 52.5628 37.8242Z" fill="white"/>
<path d="M90.9498 41.5826C95.2195 41.5661 98.5256 38.7548 99.1295 37.8408C99.9115 36.6497 98.2221 34.8547 97.6842 34.8877C96.338 36.1779 94.9291 37.7386 91.7648 37.7485C88.0396 37.7617 88.8843 33.6636 88.8843 33.6636C88.8843 33.6636 96.051 34.5908 98.9315 29.4368C99.8521 27.7871 99.8917 25.5071 99.5188 24.5238C99.1394 23.524 97.0639 21.7225 93.7479 22.0029C89.6729 22.3461 84.5388 26.5959 83.4103 31.7003C82.5029 35.8017 84.2187 41.6056 90.9531 41.5826H90.9498ZM95.5032 24.3819C96.173 24.3588 96.1137 25.4642 95.9322 26.6223C95.688 28.1896 93.5268 32.1722 89.4188 32.0204C89.696 29.6975 92.7547 24.4776 95.5032 24.3819Z" fill="white"/>
<path d="M42.6081 54.3682C43.3967 54.3682 44.0599 55.0314 44.0599 55.82C44.0599 56.6086 43.3967 57.2718 42.6081 57.2718C41.8195 57.2718 41.1562 56.6086 41.1562 55.82C41.1562 55.0314 41.8195 54.3682 42.6081 54.3682Z" fill="white"/>
<path d="M45.1683 46.7891H47.8674V52.824C47.8674 54.0415 48.5141 54.9225 49.9494 54.9225C51.3847 54.9225 52.0182 54.0415 52.0182 52.824V46.7891H54.7173V52.8999C54.7173 55.4603 53.2523 57.2685 49.9494 57.2685C46.6465 57.2685 45.165 55.4471 45.165 52.9164V46.7891H45.1683Z" fill="white"/>
<path d="M57.2381 53.6427C57.9772 54.3818 59.1222 55.0021 60.5245 55.0021C61.4352 55.0021 61.9895 54.616 61.9895 54.1211C61.9895 53.5338 61.3263 53.3028 60.2308 53.0719C58.5349 52.732 56.1559 52.2997 56.1559 49.8614C56.1559 48.1324 57.6209 46.6377 60.2605 46.6377C61.9103 46.6377 63.3456 47.1326 64.4411 48.073L62.9893 49.9703C62.1248 49.2608 60.9996 48.9045 60.089 48.9045C59.1783 48.9045 58.8714 49.2608 58.8714 49.7063C58.8714 50.2474 59.5049 50.4322 60.6466 50.6467C62.3426 51.003 64.6886 51.4947 64.6886 53.8242C64.6886 55.893 63.1609 57.2656 60.3991 57.2656C58.3171 57.2656 56.8653 56.6189 55.8325 55.629L57.2381 53.6394V53.6427Z" fill="white"/>
</g>
<defs>
<clipPath id="clip0_1911_38845">
<rect width="100" height="58" fill="white" transform="translate(0.000488281)"/>
</clipPath>
</defs>
</svg>
