<?xml version="1.0" encoding="utf-8"?>
<svg xmlns="http://www.w3.org/2000/svg" width="100" height="49" viewBox="0 0 100 49" fill="none">
<g clip-path="url(#clip0_1854_19174)">
<path d="M6.42203 13.9479C6.39703 7.45823 10.6332 3.85911 18.4105 3.83215C24.0072 3.81254 25.0075 7.40182 25.0075 8.70614C25.0075 11.2044 21.4014 13.8547 21.4014 13.8547C21.4014 13.8547 21.6015 15.4115 24.6974 15.3993C27.7933 15.387 30.8092 13.384 30.7917 8.37026C30.7767 2.6112 24.6224 -0.0219278 18.5381 0.000137493C13.4491 0.0172994 -0.0473889 0.718487 0.000125132 13.8547C0.0451384 25.5224 22.5067 26.5521 22.5243 34.0224C22.5543 42.1351 13.2715 44.3195 10.1306 44.3195C6.98967 44.3195 5.7118 42.14 5.7068 40.9436C5.68432 34.373 12.3538 32.5441 12.3538 32.5441C12.3538 32.0537 11.9637 29.8692 9.38038 29.8791C2.72592 29.8913 0.0751474 35.5008 0.0951533 40.9779C0.112658 45.6361 3.47114 48.5438 8.54264 48.5242C18.2405 48.4899 29.1762 43.8513 29.1362 33.5492C29.1012 23.9141 6.44951 21.3986 6.42203 13.9479Z" fill="white"/>
<path d="M98.8716 39.7617C98.7939 39.5778 98.5765 39.6219 98.2888 39.8548C97.1886 40.7448 94.6728 43.2651 88.786 43.2872C78.0527 43.3264 76.19 25.9831 76.19 25.9831C76.19 25.9831 84.3698 19.996 85.6477 17.5811C86.9257 15.1662 82.8596 14.6391 82.8596 14.6391C82.8596 14.6391 77.1377 21.4646 73.0814 23.4652C73.5216 20.4962 76.5227 13.7295 76.695 9.83865C76.8678 5.94777 71.9164 6.89661 71.1261 7.26923C71.1261 8.96826 66.752 24.3919 65.1591 32.8699C64.2213 34.3409 62.8809 36.0228 61.6807 36.0252C60.9855 36.0252 60.7305 34.7626 60.7226 32.9533C60.7226 30.4427 62.1333 26.4195 62.1234 23.9752C62.1234 22.2835 61.3306 22.183 60.6478 22.1854C60.5003 22.1854 59.6798 22.2075 59.5298 22.2075C57.7795 22.2075 58.3548 20.7365 56.7793 20.7512C51.9575 20.7683 45.8159 25.9291 45.5484 33.7182C43.9204 34.7749 41.6422 36.1062 40.4794 36.1111C39.259 36.1111 38.9564 35.0053 38.9539 34.0492C38.9539 32.3698 41.7248 22.3913 41.7248 22.3913C41.7248 22.3913 45.2533 21.5038 46.7938 21.2121C47.9591 20.989 48.2942 20.9056 48.7468 20.354C49.1995 19.8023 50.0849 18.6623 50.7999 17.6375C51.5154 16.6127 50.8123 15.8208 49.4895 15.8257C47.754 15.8257 43.1102 16.9044 43.1102 16.9044C43.1102 16.9044 45.3408 7.4752 45.3383 7.28394C45.3358 7.09272 45.0882 6.99219 44.7106 6.99467C43.8654 6.99467 42.3575 7.44088 41.3922 7.77918C39.9142 8.29651 38.7113 10.0716 38.4688 10.8978C38.2262 11.724 36.5557 18.194 36.5557 18.194C36.5557 18.194 27.6106 21.2219 26.3878 21.6754C26.3513 21.6877 26.3196 21.7108 26.2972 21.7416C26.2748 21.7724 26.2627 21.8092 26.2627 21.847C26.2627 21.9255 27.2855 25.7698 29.3836 25.7551C30.8841 25.7551 35.2929 23.985 35.2929 23.985C35.2929 23.985 33.0272 32.8111 33.0422 35.7531C33.0422 37.6409 33.95 39.8523 37.7111 39.8401C41.2121 39.8401 44.2755 38.0675 45.991 36.8343C46.9288 39.161 49.1445 39.7984 50.6573 39.7935C54.0485 39.7935 56.6589 37.1408 56.9942 36.7853C57.4343 37.8052 58.4722 39.7641 60.8429 39.7568C62.1833 39.7568 63.5712 38.2857 64.5941 36.8588C64.5748 37.1553 64.5788 37.4529 64.6065 37.7488C65.0165 41.4068 70.5557 39.2566 70.8582 38.7467C71.0459 36.1013 70.9285 30.6928 72.006 27.3536C73.4365 38.7442 78.8633 46.4057 88.6186 46.3714C94.0726 46.3518 96.8712 44.8146 98.0288 43.547C98.4938 43.0429 98.8161 42.4283 98.9637 41.7643C99.1117 41.1003 99.08 40.4099 98.8716 39.7617ZM52.0655 36.0056C47.3814 36.0228 53.4984 24.1198 57.4942 24.1051C57.4992 25.6399 57.4121 35.9885 52.0655 36.0056Z" fill="white"/>
<path d="M90.092 39.6539C94.3206 39.6392 97.594 36.9105 98.1941 36.0229C98.9695 34.8682 97.2939 33.125 96.7611 33.1544C95.4257 34.4073 94.0304 35.9224 90.8971 35.9322C87.2083 35.9469 88.0436 31.9678 88.0436 31.9678C88.0436 31.9678 95.1435 32.8676 97.9965 27.8637C98.9096 26.2628 98.9467 24.0488 98.5793 23.0951C98.2119 22.1414 96.1462 20.3762 92.8599 20.6434C88.8239 20.9769 83.7373 25.1031 82.6198 30.0579C81.7221 34.0445 83.4199 39.6784 90.092 39.6539ZM94.5929 22.9578C95.2584 22.9358 95.1985 24.0096 95.0207 25.1325C94.7707 26.655 92.6376 30.5262 88.5665 30.3742C88.8487 28.1211 91.8775 23.0461 94.6008 22.9578H94.5929Z" fill="white"/>
</g>
<defs>
<clipPath id="clip0_1854_19174">
<rect width="100" height="49" fill="white"/>
</clipPath>
</defs>
</svg>